<svg id="visual" viewBox="0 0 900 600" width="900" height="600" xmlns="http://www.w3.org/2000/svg" xmlns:xlink="http://www.w3.org/1999/xlink" version="1.1"><path d="M0 217L13.7 197C27.3 177 54.7 137 82 119C109.3 101 136.7 105 163.8 112C191 119 218 129 245.2 149C272.3 169 299.7 199 327 209C354.3 219 381.7 209 409 194C436.3 179 463.7 159 491 163C518.3 167 545.7 195 573 196C600.3 197 627.7 171 654.8 154C682 137 709 129 736.2 126C763.3 123 790.7 125 818 124C845.3 123 872.7 119 886.3 117L900 115L900 0L886.3 0C872.7 0 845.3 0 818 0C790.7 0 763.3 0 736.2 0C709 0 682 0 654.8 0C627.7 0 600.3 0 573 0C545.7 0 518.3 0 491 0C463.7 0 436.3 0 409 0C381.7 0 354.3 0 327 0C299.7 0 272.3 0 245.2 0C218 0 191 0 163.8 0C136.7 0 109.3 0 82 0C54.7 0 27.3 0 13.7 0L0 0Z" fill="#6198ff"></path><path d="M0 307L13.7 310C27.3 313 54.7 319 82 327C109.3 335 136.7 345 163.8 358C191 371 218 387 245.2 396C272.3 405 299.7 407 327 390C354.3 373 381.7 337 409 327C436.3 317 463.7 333 491 337C518.3 341 545.7 333 573 330C600.3 327 627.7 329 654.8 338C682 347 709 363 736.2 373C763.3 383 790.7 387 818 374C845.3 361 872.7 331 886.3 316L900 301L900 113L886.3 115C872.7 117 845.3 121 818 122C790.7 123 763.3 121 736.2 124C709 127 682 135 654.8 152C627.7 169 600.3 195 573 194C545.7 193 518.3 165 491 161C463.7 157 436.3 177 409 192C381.7 207 354.3 217 327 207C299.7 197 272.3 167 245.2 147C218 127 191 117 163.8 110C136.7 103 109.3 99 82 117C54.7 135 27.3 175 13.7 195L0 215Z" fill="#3c80ff"></path><path d="M0 415L13.7 413C27.3 411 54.7 407 82 416C109.3 425 136.7 447 163.8 462C191 477 218 485 245.2 485C272.3 485 299.7 477 327 470C354.3 463 381.7 457 409 455C436.3 453 463.7 455 491 458C518.3 461 545.7 465 573 471C600.3 477 627.7 485 654.8 487C682 489 709 485 736.2 479C763.3 473 790.7 465 818 458C845.3 451 872.7 445 886.3 442L900 439L900 299L886.3 314C872.7 329 845.3 359 818 372C790.7 385 763.3 381 736.2 371C709 361 682 345 654.8 336C627.7 327 600.3 325 573 328C545.7 331 518.3 339 491 335C463.7 331 436.3 315 409 325C381.7 335 354.3 371 327 388C299.7 405 272.3 403 245.2 394C218 385 191 369 163.8 356C136.7 343 109.3 333 82 325C54.7 317 27.3 311 13.7 308L0 305Z" fill="#0066ff"></path><path d="M0 517L13.7 514C27.3 511 54.7 505 82 509C109.3 513 136.7 527 163.8 536C191 545 218 549 245.2 549C272.3 549 299.7 545 327 540C354.3 535 381.7 529 409 530C436.3 531 463.7 539 491 541C518.3 543 545.7 539 573 540C600.3 541 627.7 547 654.8 549C682 551 709 549 736.2 544C763.3 539 790.7 531 818 530C845.3 529 872.7 535 886.3 538L900 541L900 437L886.3 440C872.7 443 845.3 449 818 456C790.7 463 763.3 471 736.2 477C709 483 682 487 654.8 485C627.7 483 600.3 475 573 469C545.7 463 518.3 459 491 456C463.7 453 436.3 451 409 453C381.7 455 354.3 461 327 468C299.7 475 272.3 483 245.2 483C218 483 191 475 163.8 460C136.7 445 109.3 423 82 414C54.7 405 27.3 409 13.7 411L0 413Z" fill="#0059dd"></path><path d="M0 601L13.7 601C27.3 601 54.7 601 82 601C109.3 601 136.7 601 163.8 601C191 601 218 601 245.2 601C272.3 601 299.7 601 327 601C354.3 601 381.7 601 409 601C436.3 601 463.7 601 491 601C518.3 601 545.7 601 573 601C600.3 601 627.7 601 654.8 601C682 601 709 601 736.2 601C763.3 601 790.7 601 818 601C845.3 601 872.7 601 886.3 601L900 601L900 539L886.3 536C872.7 533 845.3 527 818 528C790.7 529 763.3 537 736.2 542C709 547 682 549 654.8 547C627.7 545 600.3 539 573 538C545.7 537 518.3 541 491 539C463.7 537 436.3 529 409 528C381.7 527 354.3 533 327 538C299.7 543 272.3 547 245.2 547C218 547 191 543 163.8 534C136.7 525 109.3 511 82 507C54.7 503 27.3 509 13.7 512L0 515Z" fill="#004cbb"></path></svg>