<svg width="1152" height="316" viewBox="0 0 1152 316" fill="none" xmlns="http://www.w3.org/2000/svg">
<path d="M30.2477 89.2533L18.7319 6.5625H145.268L133.737 89.2402L81.9231 98.4375L30.2477 89.2533Z" fill="#E44F26"/>
<path d="M82 91.4091L123.871 83.977L133.721 13.3252H82V91.4091Z" fill="#F1662A"/>
<path d="M82 43.9917H61.0387L59.5935 33.6066H82V23.4642H81.9436H42.2812L42.6605 26.1877L46.5504 54.1341H82V43.9917Z" fill="#EBEBEB"/>
<path d="M82 70.3303L81.9283 70.3434L64.288 67.2952L63.1605 59.2069H54.5864H47.2576L49.4768 75.1275L81.9283 80.8959L82 80.8828V70.3303Z" fill="#EBEBEB"/>
<path d="M81.9436 43.9917V54.1341H101.449L99.6146 67.2886L81.9436 70.3402V80.8927L114.421 75.1275L114.657 73.4147L118.377 46.7152L118.767 43.9917H114.498H81.9436Z" fill="white"/>
<path d="M81.9436 23.4642V29.7642V33.5836V33.6066H120.156H120.207L120.525 31.3294L121.247 26.1877L121.627 23.4642H81.9436Z" fill="white"/>
<path d="M219.617 84.2029L207.966 11.75H336.035L324.368 84.1914L271.922 92.25L219.617 84.2029Z" fill="#1572B6"/>
<path d="M272 86.0918L314.382 79.5799L324.352 17.6754H272V86.0918Z" fill="#33A9DC"/>
<path d="M272 43.9241H293.217L294.68 34.8248H272V25.9381H272.057H312.203L311.819 28.3215L307.882 52.8108H272V43.9241Z" fill="white"/>
<path d="M272.099 67.0017L272.026 67.0132L254.171 64.3395L253.029 57.2526H244.351H236.932L239.179 71.205L272.021 76.2592L272.099 76.2477V67.0017Z" fill="#EBEBEB"/>
<path d="M291.853 52.4341L289.923 64.3338L272.042 67.0075V76.2535L304.91 71.205L305.153 69.7043L307.939 52.4341H291.853Z" fill="white"/>
<path d="M272.057 25.9381V31.4581V34.8018V34.8248H233.379H233.327L233.006 32.8266L232.274 28.3215L231.89 25.9381H272.057Z" fill="#EBEBEB"/>
<path d="M272 43.9241V49.4441V52.7878V52.8107H254.42H254.368L254.046 50.8126L253.32 46.3075L252.936 43.9241H272Z" fill="#EBEBEB"/>
<g clip-path="url(#clip0_18_3)">
<path d="M543.953 12H383.047C383.021 12 383 12.0122 383 12.0272V104.973C383 104.988 383.021 105 383.047 105H543.953C543.979 105 544 104.988 544 104.973V12.0272C544 12.0122 543.979 12 543.953 12Z" fill="#F7DF1E"/>
<path d="M484.883 79.207C488.027 82.2949 492.43 84.4746 499.662 84.4746C505.951 84.4746 510.039 82.6582 510.039 80.1152C510.039 77.209 505.951 76.1191 499.033 74.3027L495.26 73.3945C484.254 70.6699 477.021 67.4004 477.021 60.3164C477.021 53.7773 485.512 48.6914 499.033 48.6914C508.781 48.6914 515.699 50.6895 520.416 55.7754L508.781 60.1348C506.266 57.4102 503.436 56.3203 499.033 56.3203C494.631 56.3203 491.801 57.9551 491.801 60.1348C491.801 62.6777 494.631 63.7676 501.234 65.4023L505.008 66.3105C517.9 69.5801 525.133 72.668 525.133 80.1152C525.133 87.9258 514.441 92.2852 499.977 92.2852C485.826 92.2852 476.707 88.4707 472.305 83.3848L484.883 79.207ZM431.426 79.9336C433.941 82.2949 435.828 84.4746 441.174 84.4746C446.205 84.4746 449.35 83.3848 449.35 79.0254V48.873H464.443V78.6621C464.443 87.7441 455.324 91.7402 441.803 91.7402C429.539 91.7402 422.621 88.1074 419.162 83.748L431.426 79.9336Z" fill="black"/>
</g>
<path d="M696 56.9125C702.741 56.9125 708.206 52.8138 708.206 47.7578C708.206 42.7018 702.741 38.6031 696 38.6031C689.259 38.6031 683.794 42.7018 683.794 47.7578C683.794 52.8138 689.259 56.9125 696 56.9125Z" fill="#61DAFB"/>
<path d="M696 81.4234C705.581 88.4125 715.031 92.5469 722.644 92.5469C725.138 92.5469 727.5 92.1531 729.469 91.2672C736.294 88.3141 738.788 80.9313 736.425 70.3984C736.031 68.5281 735.506 66.6578 734.85 64.6891C737.475 64.0984 739.837 63.5078 742.2 62.9172C755.456 59.0781 762.806 53.7625 762.806 47.9547C762.806 42.0484 755.456 36.7328 742.2 32.9922C739.837 32.3031 737.475 31.7125 734.85 31.2203C735.506 29.2516 736.031 27.3813 736.425 25.5109C738.656 14.7812 736.162 7.3 729.338 4.34688C727.369 3.46094 725.006 3.06719 722.512 3.06719C715.031 3.06719 705.45 7.20156 695.869 14.1906C686.419 7.20156 676.969 3.06719 669.356 3.06719C666.862 3.06719 664.5 3.46094 662.531 4.34688C655.706 7.3 653.212 14.6828 655.575 25.2156C655.969 27.0859 656.494 28.9562 657.15 30.925C654.525 31.5156 652.162 32.1063 649.8 32.6969C636.544 36.5359 629.194 41.8516 629.194 47.6594C629.194 53.5656 636.544 58.8813 649.8 62.6219C652.162 63.3109 654.525 63.9016 657.15 64.3938C656.494 66.3625 655.969 68.2328 655.575 70.1031C653.344 80.6359 655.837 88.1172 662.531 90.9719C664.5 91.8578 666.862 92.2516 669.356 92.2516C676.969 92.4484 686.419 88.3141 696 81.4234ZM688.65 68.1344C691.013 68.2328 693.506 68.2328 696 68.2328C698.494 68.2328 700.987 68.2328 703.35 68.1344C700.987 70.4969 698.494 72.6625 696 74.7297C693.506 72.6625 691.013 70.4969 688.65 68.1344ZM672.375 57.9953C673.688 59.6688 674.869 61.2438 676.312 62.8188C672.244 62.425 668.438 61.9328 664.763 61.3422C665.944 58.6844 667.256 55.9281 668.831 53.1719C669.881 54.7469 671.062 56.4203 672.375 57.9953ZM664.763 34.2719C668.438 33.6812 672.244 33.1891 676.312 32.7953C675 34.3703 673.688 35.9453 672.375 37.6188C671.062 39.2922 669.881 40.8672 668.831 42.5406C667.125 39.6859 665.812 36.9297 664.763 34.2719ZM671.981 47.7578C673.687 45.1 675.525 42.4422 677.625 39.7844C679.594 37.225 681.825 34.6656 684.056 32.1063C687.994 31.9094 691.931 31.8109 696 31.8109C700.2 31.8109 704.137 31.9094 707.944 32.1063C710.306 34.6656 712.406 37.225 714.375 39.7844C716.475 42.4422 718.313 45.1 720.019 47.7578C718.313 50.4156 716.475 53.0734 714.375 55.7313C712.406 58.2906 710.175 60.85 707.944 63.4094C704.006 63.6063 700.069 63.7047 696 63.7047C691.8 63.7047 687.863 63.6063 684.056 63.4094C681.694 60.85 679.594 58.2906 677.625 55.7313C675.525 53.0734 673.687 50.4156 671.981 47.7578ZM723.3 42.4422L719.756 37.5203C718.444 35.8469 717.262 34.2719 715.819 32.6969C719.887 33.0906 723.694 33.5828 727.369 34.1734C726.188 36.9297 724.875 39.6859 723.3 42.4422ZM723.3 53.0734C724.875 55.8297 726.188 58.5859 727.369 61.2438C723.694 61.8344 719.887 62.3266 715.819 62.7203C717.131 61.1453 718.444 59.5703 719.756 57.8969C720.938 56.4203 722.119 54.7469 723.3 53.0734ZM726.319 87.2313C725.269 87.7234 723.956 87.9203 722.512 87.9203C716.081 87.9203 708.075 83.9828 700.2 78.0766C704.006 75.025 707.681 71.5797 711.356 67.7406C717.525 67.3469 723.431 66.6578 728.944 65.6734C729.6 67.4453 729.994 69.2172 730.387 70.9891C732.225 79.3563 730.781 85.3609 726.319 87.2313ZM733.144 35.3547C747.844 38.5047 756.637 43.3281 756.637 47.7578C756.637 51.5969 750.6 55.4359 739.969 58.4875C737.869 59.0781 735.506 59.6688 733.144 60.1609C731.438 56.125 729.338 51.9906 726.713 47.7578C729.338 43.525 731.569 39.3906 733.144 35.3547ZM722.644 7.59531C724.088 7.59531 725.269 7.79219 726.45 8.28438C730.781 10.1547 732.356 16.0609 730.519 24.5266C730.125 26.2 729.6 27.9719 729.075 29.8422C723.562 28.9562 717.656 28.2672 711.488 27.775C707.944 23.9359 704.138 20.4906 700.331 17.4391C708.206 11.6313 716.213 7.59531 722.644 7.59531ZM703.35 27.3813C700.987 27.2828 698.494 27.2828 696 27.2828C693.506 27.2828 691.013 27.2828 688.65 27.3813C691.013 25.0187 693.506 22.8531 696 20.7859C698.494 22.8531 700.987 25.1172 703.35 27.3813ZM665.681 8.28438C666.731 7.79219 668.044 7.59531 669.487 7.59531C675.919 7.59531 683.925 11.5328 691.8 17.4391C687.994 20.4906 684.319 23.9359 680.644 27.775C674.475 28.1688 668.569 28.8578 663.056 29.8422C662.4 28.0703 662.006 26.2984 661.612 24.5266C659.775 16.1594 661.219 10.2531 665.681 8.28438ZM658.856 60.1609C644.156 57.0109 635.362 52.1875 635.362 47.7578C635.362 43.9188 641.4 40.0797 652.031 37.0281C654.131 36.4375 656.494 35.8469 658.856 35.3547C660.562 39.3906 662.662 43.525 665.287 47.7578C662.662 51.9906 660.431 56.2234 658.856 60.1609ZM661.612 70.9891C662.006 69.3156 662.531 67.5438 663.056 65.6734C668.569 66.5594 674.475 67.2484 680.644 67.7406C684.187 71.5797 687.994 75.025 691.8 78.0766C683.925 83.8844 675.919 87.9203 669.487 87.9203C668.044 87.9203 666.862 87.7234 665.681 87.2313C661.219 85.3609 659.775 79.3563 661.612 70.9891ZM656.1 111.545C658.987 108.888 659.119 105.934 657.544 102.981C655.969 100.028 652.687 98.65 648.619 98.5516C643.762 98.4531 638.775 98.5516 633.919 98.5516H633V124.047H636.937V114.4H643.106C643.894 114.4 644.55 114.597 644.944 115.089L652.819 124.244C652.95 124.441 653.344 124.736 653.606 124.736H658.725C655.575 121.094 652.556 117.648 649.406 114.105C652.162 113.809 654.525 113.12 656.1 111.545ZM636.937 111.348V101.603H638.381C641.4 101.603 644.55 101.505 647.569 101.702C651.112 101.8 653.606 103.867 653.606 106.525C653.606 109.183 650.719 111.25 647.175 111.348C644.025 111.447 640.875 111.348 636.937 111.348ZM687.731 112.628C685.631 105.738 677.231 103.966 670.8 106.131C665.812 107.805 663.581 111.053 663.45 115.089C663.319 118.141 664.5 120.897 667.65 122.964C671.194 125.327 675.525 125.622 679.987 125.031C682.481 124.638 684.712 123.752 686.419 122.373C685.762 121.684 685.106 120.995 684.45 120.405C680.775 122.767 676.706 123.555 672.244 121.98C669.356 120.897 667.912 118.239 667.65 116.27H687.994V114.991C688.125 114.105 687.994 113.317 687.731 112.628ZM667.912 114.203C667.519 111.25 671.456 108.1 675.787 108.1C680.775 108.002 683.925 110.266 684.056 114.203H667.912ZM708.206 105.639C706.238 105.344 704.137 105.245 702.169 105.344C699.019 105.541 696.262 106.623 694.031 108.395C694.688 109.084 695.213 109.773 696 110.561C696.262 110.364 696.525 110.167 696.787 110.069C698.887 108.592 701.381 107.805 704.4 108.002C706.763 108.1 708.994 108.691 709.65 110.462C710.175 111.841 710.044 113.317 710.175 114.794C709.781 114.794 709.65 114.695 709.519 114.597C706.369 112.628 702.825 112.234 699.019 112.923C695.475 113.612 693.244 115.68 692.981 118.337C692.719 121.389 694.556 123.653 698.1 124.736C700.331 125.425 702.825 125.425 705.188 125.031C707.025 124.736 707.812 123.948 710.438 122.866V124.145H714.113C714.113 120.208 714.244 115.384 714.113 110.856C714.113 108.002 711.881 106.23 708.206 105.639ZM710.044 118.042C709.912 118.338 710.044 118.633 710.044 118.928C710.044 120.995 709.387 121.684 706.762 122.472C704.925 122.964 702.956 123.161 700.988 122.669C698.756 122.177 697.181 120.7 697.181 119.027C697.05 117.353 698.494 115.68 700.725 115.188C703.744 114.4 706.5 114.892 708.994 116.27C709.781 116.763 710.306 117.255 710.044 118.042ZM730.519 108.297C733.931 107.509 737.081 108.002 739.444 110.167L739.838 110.364C740.756 109.773 741.544 109.183 742.594 108.494C742.2 108.198 742.069 108.002 741.806 107.706C738 104.655 730.519 104.261 725.925 106.722C719.494 110.266 719.625 117.156 722.775 120.798C725.794 124.244 730.125 125.425 735.244 124.933C738.263 124.638 740.756 123.555 742.725 121.684C741.806 121.094 740.887 120.503 739.969 119.814C739.706 120.011 739.575 120.109 739.444 120.306C735.9 123.259 729.994 122.964 726.844 119.814C725.006 117.944 724.612 115.778 725.137 113.613C725.4 111.152 727.106 109.183 730.519 108.297ZM757.819 121.684C757.556 121.783 757.425 121.881 757.425 121.881C756.375 122.472 755.325 122.57 754.144 122.275C752.963 121.881 752.831 121.094 752.7 120.306V109.084C752.7 108.888 752.7 109.281 752.831 108.297H757.819V105.344H752.569V100.422H748.631V105.738H745.219C744.956 105.738 744.562 105.934 744.562 106.131C744.431 106.82 744.562 107.313 744.562 108.297H748.762V120.897C748.762 122.472 749.287 123.85 751.125 124.638C753.094 125.523 756.9 125.327 758.606 124.244C758.869 124.145 759 123.752 759 123.653C758.606 123.063 758.213 122.373 757.819 121.684Z" fill="#61DAFB"/>
<path d="M920.688 51.0212C916.282 49.9343 912.392 47.9798 909.466 45.3821C906.241 42.4877 902.135 40.1601 897.461 38.5773C892.787 36.9945 887.669 36.1984 882.5 36.25C875.546 35.8972 868.662 37.4336 863.218 40.553C857.775 43.6725 854.171 48.1463 853.125 53.0833C855.185 50.6141 858.286 48.6766 861.981 47.5499C865.676 46.4231 869.775 46.1651 873.688 46.8129C878.086 47.9315 881.969 49.8973 884.909 52.4942C888.152 55.3654 892.266 57.669 896.939 59.2296C901.612 60.7902 906.72 61.5667 911.875 61.5C918.829 61.8528 925.713 60.3164 931.157 57.1969C936.6 54.0775 940.204 49.6037 941.25 44.6667C939.227 47.1655 936.136 49.1321 932.434 50.2764C928.731 51.4206 924.613 51.6818 920.688 51.0212ZM844.312 71.9787C848.718 73.0657 852.608 75.0202 855.534 77.6179C858.759 80.5123 862.865 82.8399 867.539 84.4227C872.213 86.0055 877.331 86.8016 882.5 86.75C889.454 87.1028 896.338 85.5664 901.782 82.4469C907.225 79.3275 910.829 74.8537 911.875 69.9167C909.815 72.3859 906.714 74.3233 903.019 75.4501C899.324 76.5769 895.225 76.8349 891.312 76.1871C886.914 75.0685 883.031 73.1027 880.091 70.5058C876.84 67.6417 872.724 65.3432 868.053 63.7833C863.382 62.2234 858.278 61.4427 853.125 61.5C846.171 61.1472 839.287 62.6836 833.843 65.803C828.4 68.9225 824.796 73.3963 823.75 78.3333C825.773 75.8345 828.864 73.8679 832.566 72.7236C836.269 71.5794 840.387 71.3182 844.312 71.9787Z" fill="black"/>
<path d="M1004.17 114.188H1009.05C1011.27 114.188 1012.88 114.448 1013.88 114.966C1014.89 115.485 1015.39 116.31 1015.39 117.441C1015.39 118.209 1015.17 118.838 1014.73 119.33C1014.29 119.822 1013.71 120.118 1012.98 120.218V120.305C1013.97 120.487 1014.69 120.827 1015.13 121.325C1015.57 121.823 1015.79 122.485 1015.79 123.311C1015.79 124.484 1015.27 125.397 1014.24 126.054C1013.2 126.71 1011.8 127.038 1010.03 127.038H1004.17V114.188ZM1007.49 119.277H1009.42C1010.32 119.277 1010.97 119.163 1011.38 118.935C1011.78 118.706 1011.98 118.329 1011.98 117.801C1011.98 117.309 1011.76 116.957 1011.32 116.742C1010.88 116.528 1010.19 116.421 1009.24 116.421H1007.49V119.277ZM1007.49 121.439V124.788H1009.66C1010.57 124.788 1011.25 124.645 1011.68 124.358C1012.12 124.07 1012.34 123.631 1012.34 123.039C1012.34 121.974 1011.41 121.439 1009.55 121.439H1007.49ZM1033.14 120.596C1033.14 122.722 1032.5 124.358 1031.21 125.5C1029.92 126.643 1028.08 127.215 1025.68 127.215C1023.28 127.215 1021.44 126.643 1020.15 125.5C1018.86 124.358 1018.22 122.717 1018.22 120.578C1018.22 118.439 1018.87 116.807 1020.16 115.679C1021.45 114.55 1023.29 113.986 1025.7 113.986C1028.11 113.986 1029.95 114.555 1031.23 115.691C1032.5 116.828 1033.14 118.463 1033.14 120.596ZM1021.7 120.596C1021.7 122.031 1022.04 123.112 1022.7 123.839C1023.37 124.565 1024.36 124.929 1025.68 124.929C1028.33 124.929 1029.66 123.484 1029.66 120.596C1029.66 117.701 1028.34 116.254 1025.7 116.254C1024.38 116.254 1023.38 116.618 1022.71 117.349C1022.04 118.079 1021.7 119.16 1021.7 120.596ZM1050.61 120.596C1050.61 122.722 1049.97 124.358 1048.68 125.5C1047.4 126.643 1045.55 127.215 1043.15 127.215C1040.75 127.215 1038.91 126.643 1037.62 125.5C1036.33 124.358 1035.69 122.717 1035.69 120.578C1035.69 118.439 1036.34 116.807 1037.63 115.679C1038.92 114.55 1040.77 113.986 1043.17 113.986C1045.58 113.986 1047.42 114.555 1048.7 115.691C1049.97 116.828 1050.61 118.463 1050.61 120.596ZM1039.17 120.596C1039.17 122.031 1039.51 123.112 1040.17 123.839C1040.84 124.565 1041.83 124.929 1043.15 124.929C1045.8 124.929 1047.13 123.484 1047.13 120.596C1047.13 117.701 1045.81 116.254 1043.17 116.254C1041.85 116.254 1040.85 116.618 1040.18 117.349C1039.51 118.079 1039.17 119.16 1039.17 120.596ZM1059.9 127.038H1056.58V116.456H1052.32V114.188H1064.16V116.456H1059.9V127.038ZM1075.82 123.47C1075.82 124.631 1075.31 125.544 1074.29 126.212C1073.27 126.88 1071.86 127.215 1070.04 127.215C1068.37 127.215 1066.89 126.956 1065.6 126.441V123.91C1066.66 124.296 1067.56 124.569 1068.29 124.728C1069.02 124.886 1069.69 124.965 1070.3 124.965C1071.03 124.965 1071.59 124.851 1071.98 124.623C1072.37 124.394 1072.56 124.055 1072.56 123.603C1072.56 123.352 1072.48 123.128 1072.3 122.931C1072.13 122.735 1071.88 122.545 1071.55 122.364C1071.22 122.182 1070.54 121.892 1069.52 121.494C1068.56 121.125 1067.84 120.771 1067.36 120.43C1066.88 120.09 1066.5 119.695 1066.22 119.245C1065.93 118.793 1065.79 118.265 1065.79 117.663C1065.79 116.526 1066.26 115.632 1067.2 114.982C1068.14 114.331 1069.44 114.006 1071.09 114.006C1071.91 114.006 1072.69 114.085 1073.42 114.244C1074.16 114.402 1074.94 114.624 1075.74 114.912L1074.67 117.03C1073.84 116.749 1073.15 116.552 1072.6 116.441C1072.05 116.329 1071.51 116.273 1070.99 116.273C1070.36 116.273 1069.87 116.393 1069.54 116.634C1069.2 116.874 1069.03 117.187 1069.03 117.574C1069.03 117.815 1069.1 118.024 1069.24 118.203C1069.37 118.382 1069.59 118.555 1069.89 118.722C1070.18 118.889 1070.89 119.189 1071.99 119.623C1073.46 120.198 1074.46 120.773 1075 121.35C1075.55 121.927 1075.82 122.632 1075.82 123.47ZM1084.7 127.038H1081.38V116.456H1077.13V114.188H1088.96V116.456H1084.7V127.038ZM1094.69 122.107V127.038H1091.37V114.188H1095.94C1098.07 114.188 1099.64 114.506 1100.66 115.141C1101.68 115.778 1102.2 116.743 1102.2 118.038C1102.2 118.794 1101.94 119.466 1101.43 120.055C1100.93 120.644 1100.21 121.105 1099.28 121.438C1101.64 124.327 1103.17 126.193 1103.89 127.037H1100.2L1096.46 122.106H1094.69V122.107ZM1094.69 119.892H1095.77C1096.82 119.892 1097.59 119.749 1098.09 119.462C1098.59 119.174 1098.84 118.723 1098.84 118.108C1098.84 117.499 1098.59 117.065 1098.07 116.807C1097.56 116.549 1096.77 116.42 1095.7 116.42H1094.69V119.892ZM1115.45 127.038L1114.32 123.979H1108.6L1107.47 127.038H1103.89L1109.42 114.136H1113.48L1119.03 127.038H1115.45ZM1113.52 121.694C1112.47 118.923 1111.88 117.355 1111.75 116.992C1111.62 116.629 1111.52 116.342 1111.47 116.131C1111.23 116.881 1110.56 118.735 1109.44 121.694H1113.52ZM1131.83 118.196C1131.83 119.579 1131.3 120.637 1130.25 121.368C1129.2 122.101 1127.7 122.468 1125.75 122.468H1124.33V127.038H1121.01V114.188H1126.01C1127.91 114.188 1129.36 114.523 1130.35 115.194C1131.34 115.866 1131.83 116.866 1131.83 118.196ZM1124.33 120.235H1125.42C1126.44 120.235 1127.21 120.07 1127.72 119.738C1128.22 119.407 1128.48 118.926 1128.48 118.293C1128.48 117.654 1128.26 117.182 1127.84 116.878C1127.41 116.573 1126.75 116.42 1125.84 116.42H1124.33V120.235H1124.33ZM1079.66 60.5419C1077.34 59.9144 1073.99 59.8125 1069.62 59.8125H1053.94V79.0312H1070.84C1073.77 79.0312 1075.83 78.792 1077.02 78.6113C1079.11 78.3057 1080.85 77.7177 1082.26 77.0008C1083.66 76.2859 1084.82 75.2048 1085.72 73.8364C1086.62 72.468 1087.08 70.87 1087.08 69.0788C1087.08 66.9801 1086.42 65.2543 1085.11 63.7072C1083.8 62.1591 1081.99 61.1684 1079.66 60.5419ZM1077.25 52.2663C1079.56 51.7031 1081.3 50.6846 1082.47 49.3806C1083.64 48.0766 1084.22 46.3988 1084.22 44.4279C1084.22 42.5608 1083.68 40.8964 1082.59 39.4752C1081.49 38.055 1079.93 37.0911 1077.91 36.5665C1075.88 36.0437 1072.4 35.7891 1067.47 35.7891H1053.94V53.0859H1068.59C1072.62 53.0859 1075.5 52.7025 1077.25 52.2663ZM1130.11 21.4961C1130.11 13.9988 1122.7 7.92188 1113.55 7.92188H1022.45C1013.3 7.92188 1005.89 13.9988 1005.89 21.4961V96.207C1005.89 103.704 1013.3 109.781 1022.45 109.781H1113.55C1122.7 109.781 1130.11 103.704 1130.11 96.207V21.4961ZM1094.45 76.4079C1093.09 78.6719 1091.42 80.4179 1089.42 81.646C1087.42 82.8731 1084.92 83.9964 1081.91 84.6229C1078.9 85.2504 1075.21 85.7578 1070.84 85.7578H1044.56V29.0625H1070.42C1075.66 29.0625 1079.86 29.6583 1083.03 30.796C1086.2 31.9347 1088.68 33.699 1090.47 36.0649C1092.27 38.4316 1093.16 40.9137 1093.16 43.4977C1093.16 45.902 1092.37 48.1688 1090.78 50.2925C1089.19 52.4162 1086.78 54.1314 1083.57 55.4354C1087.72 56.4329 1090.91 58.1366 1093.14 60.5409C1095.37 62.9461 1096.49 65.7857 1096.49 69.0606C1096.48 71.6955 1095.81 74.1449 1094.45 76.4079Z" fill="#5B4282"/>
<path d="M1013.25 233V272.375H1078H1142.75V233V193.625H1078H1013.25V233Z" fill="#007ACC"/>
<path d="M1117.61 229.861C1120.71 230.3 1123.53 231.287 1125.71 232.699C1126.91 233.463 1127.95 234.313 1128.81 235.23C1128.85 235.332 1123.22 237.629 1119.81 238.917C1119.68 238.968 1119.19 238.636 1118.64 238.141C1118.01 237.488 1117.13 236.941 1116.06 236.551C1115 236.162 1113.79 235.944 1112.55 235.917C1108.62 235.753 1106.07 237.005 1106.12 239.092C1106.08 239.604 1106.27 240.113 1106.67 240.566C1107.54 241.654 1109.14 242.304 1114.17 243.628C1123.42 246.053 1127.41 247.653 1129.9 249.928C1131.28 251.365 1132.13 252.969 1132.39 254.627C1132.65 256.285 1132.31 257.958 1131.4 259.527C1130.14 261.251 1128.15 262.739 1125.63 263.836C1123.1 264.933 1120.15 265.599 1117.06 265.766C1113.78 265.994 1110.46 265.974 1107.19 265.704C1102.18 265.203 1097.56 263.741 1094.02 261.53C1092.68 260.612 1091.54 259.591 1090.64 258.492C1091.02 258.321 1091.42 258.167 1091.84 258.031C1092.41 257.832 1094.61 257.069 1096.65 256.344L1100.35 255.03L1101.12 255.725C1102.44 256.87 1104.12 257.845 1106.06 258.594C1108.01 259.245 1110.23 259.553 1112.45 259.485C1114.67 259.416 1116.82 258.973 1118.66 258.206C1119.6 257.645 1120.19 256.901 1120.32 256.104C1120.45 255.307 1120.12 254.507 1119.38 253.843C1118.37 252.969 1116.32 252.232 1110.48 250.693C1105.9 249.751 1101.74 248.192 1098.29 246.132C1096.65 244.993 1095.43 243.649 1094.73 242.194C1094.22 240.537 1094.14 238.84 1094.51 237.168C1095.19 235.245 1096.83 233.496 1099.21 232.158C1101.58 230.821 1104.58 229.96 1107.78 229.692C1111.05 229.448 1114.37 229.505 1117.61 229.861ZM1087.21 233.149L1087.25 236.375H1070.4V265.501H1058.47V236.375H1041.62V233.214C1041.57 232.129 1041.62 231.044 1041.76 229.962C1041.82 229.912 1052.08 229.887 1064.51 229.901L1087.14 229.937L1087.21 233.149Z" fill="white"/>
<path d="M148.734 243.462C144.365 243.465 140.054 244.1 136.128 245.318C134.899 244.022 133.95 242.627 133.306 241.17C132.936 240.028 132.851 238.857 133.053 237.698C133.477 236.423 134.028 235.167 134.702 233.936C134.677 233.775 134.399 233.014 131.602 232.989C128.804 232.964 126.395 233.327 126.136 233.797C125.65 234.656 125.26 235.536 124.969 236.43C122.653 240.058 119.804 243.539 116.457 246.826C114.582 244.874 113.811 242.574 114.271 240.305C114.696 239.031 115.247 237.774 115.92 236.543C115.896 236.382 115.617 235.622 112.82 235.596C110.023 235.571 107.613 235.934 107.354 236.404C107.096 236.875 106.768 237.982 106.187 239.037C105.605 240.091 98.818 249.724 97.0392 252.208C96.125 253.47 95.3349 254.499 94.7784 255.193C94.7521 255.239 94.7188 255.282 94.6791 255.323C94.1822 255.919 93.9188 256.244 93.9188 256.244V256.26C93.5362 256.696 93.1288 257.1 92.9251 257.1C92.5698 256.198 92.5869 255.253 92.9748 254.357C93.9685 251.015 96.4032 245.819 96.3784 245.639C96.3784 245.542 96.8355 244.639 94.8033 244.172C94.3319 244.029 93.8027 243.983 93.2883 244.04C92.774 244.096 92.2999 244.253 91.9313 244.487C91.7525 244.487 91.6282 244.762 91.6282 244.762C91.6282 244.762 93.8393 238.92 87.4098 238.92C84.906 239.24 82.5282 239.874 80.4163 240.787C78.3043 241.699 76.5009 242.87 75.1121 244.232C73.383 244.828 69.7011 246.103 65.7609 247.476C64.2703 248.01 62.7101 248.543 61.2642 249.055C61.1648 248.991 61.0605 248.909 60.9611 248.846C53.1353 243.55 38.7508 239.813 39.3719 232.727C39.6005 230.145 40.9967 223.366 66.9932 215.131C88.3886 208.434 105.417 210.289 108.363 214.405C112.581 220.282 99.2404 231.193 77.1344 232.775C74.6888 233.09 72.163 233.052 69.7437 232.663C67.3244 232.275 65.0734 231.546 63.1573 230.53C61.9897 229.722 61.8108 229.675 61.3785 229.836C60.668 230.079 61.1251 230.805 61.3785 231.225C62.2218 232.194 63.3625 233.047 64.733 233.731C66.1036 234.416 67.6764 234.919 69.3583 235.211C78.0548 236.405 87.1218 235.834 95.2803 233.579C108.696 230.287 119.13 221.134 116.07 213.468C112.994 205.688 92.6667 203.122 73.4277 207.471C61.3773 210.047 50.2427 214.104 40.6588 219.411C30.0605 225.708 28.386 231.178 29.0717 233.472C31.5561 241.609 49.2001 246.902 56.2607 250.831C55.9029 250.961 55.575 251.075 55.2967 251.169C51.764 252.283 38.2986 256.756 34.9249 261.484C31.1138 266.849 35.536 270.684 38.4576 271.202C42.86 271.871 47.4815 271.651 51.6771 270.571C55.8726 269.492 59.4327 267.607 61.8605 265.18C63.9278 263.167 65.1985 260.866 65.5645 258.474C65.9304 256.082 65.3807 253.669 63.9622 251.441C63.9383 251.405 63.9047 251.372 63.8629 251.343L66.6305 250.311C68.4341 249.632 70.2129 249.004 71.7383 248.486C70.7039 250.382 70.0967 252.36 69.9347 254.363C69.5835 257.434 71.0627 260.476 74.0786 262.885C74.5375 263.136 75.0703 263.327 75.646 263.446C76.2217 263.565 76.829 263.611 77.4325 263.58C80.4138 263.58 81.7802 262.001 83.2758 260.127C85.1043 257.835 86.7539 255.171 86.7539 255.171C86.7539 255.171 84.6968 262.371 90.2867 262.371C92.3189 262.371 94.376 260.692 95.2952 259.846V259.862C95.2952 259.862 95.3449 259.814 95.4492 259.701L95.7771 259.363V259.331C96.592 258.429 98.4205 256.377 101.138 252.971C104.646 248.581 108.025 243.092 108.025 243.092C108.351 244.299 108.801 245.49 109.372 246.659C110.19 248.076 111.158 249.456 112.268 250.79C111.454 251.516 110.947 251.92 110.947 251.92L110.972 251.936C110.311 252.485 109.6 253.082 108.81 253.663C106.46 255.304 104.279 257.041 102.281 258.861C101.984 259.167 101.882 259.533 101.996 259.885C102.11 260.237 102.43 260.548 102.892 260.755C103.938 261.1 105.131 261.225 106.296 261.111C108.052 261.048 109.779 260.798 111.404 260.37C112.974 260.019 114.455 259.524 115.801 258.902C117.189 258.291 118.305 257.464 119.044 256.5C119.783 255.536 120.119 254.468 120.02 253.398C119.863 252.049 119.321 250.73 118.42 249.506C118.673 249.279 118.917 249.055 119.155 248.827C121.98 246.149 124.526 243.356 126.777 240.466C127.103 241.673 127.553 242.864 128.124 244.033C128.799 245.257 129.63 246.445 130.608 247.584C127.358 249.172 124.798 251.26 123.17 253.65C121.57 256.588 122.812 257.911 125.157 258.217C126.441 258.273 127.724 258.106 128.869 257.734C130.553 257.383 132.139 256.865 133.569 256.2C135.078 255.635 136.341 254.84 137.246 253.887C138.15 252.935 138.668 251.854 138.752 250.743C138.639 249.634 138.245 248.544 137.584 247.514C141.873 246.45 146.523 246.111 151.079 246.53C163.173 247.432 165.563 252.227 165.106 254.247C164.892 254.963 164.438 255.641 163.777 256.237C163.115 256.832 162.261 257.331 161.27 257.699C160.431 258.037 160.152 258.151 160.227 258.394C160.326 258.751 160.724 258.732 161.444 258.668C163.267 258.309 164.875 257.606 166.057 256.654C167.238 255.702 167.938 254.544 168.063 253.334C168.445 248.6 161.33 243.408 148.749 243.455L148.734 243.462ZM55.421 263.434C51.4062 266.212 45.8164 267.26 43.4016 266.373C40.8079 265.426 41.8265 261.323 46.7555 258.381C49.6793 256.709 52.8396 255.212 56.1961 253.909C56.7824 253.682 57.647 253.36 58.6805 252.962L58.9587 252.864L59.5699 252.621C60.4505 254.495 60.5303 256.484 59.8012 258.385C59.0721 260.285 57.5603 262.028 55.421 263.434ZM84.6422 250.809C83.246 252.971 80.3243 258.511 78.5455 258.201C77.0201 257.943 76.0611 253.745 78.2424 249.597C79.3438 247.601 80.948 245.731 82.9926 244.061C85.1788 242.512 87.5936 241.994 88.175 242.625C87.6446 245.45 86.4539 248.208 84.6422 250.809ZM108.756 258.138C108.169 258.331 107.613 258.454 107.359 258.365C107.18 258.302 107.613 258.05 107.613 258.05C107.613 258.05 110.639 255.982 111.831 255.048C112.517 254.499 113.322 253.855 114.196 253.126V253.334C114.196 255.803 110.435 257.466 108.76 258.145L108.756 258.138ZM127.359 255.443C126.926 255.25 127.001 254.603 128.452 252.586C129.46 251.291 130.87 250.138 132.596 249.197C132.86 249.674 132.998 250.177 133.003 250.683C133.023 251.761 132.48 252.813 131.46 253.674C130.44 254.536 128.999 255.159 127.363 255.446L127.359 255.443Z" fill="#CD6799"/>
<path d="M313.005 229.516C303.436 229.516 298.681 233.981 298.681 240.409C298.681 244.547 300.996 247.478 304.061 248.82C302.56 250.05 301.31 251.126 300.184 252.187C299.056 253.251 298.369 254.374 298.369 255.605C298.369 257.115 299.056 258.515 301.121 259.295C298.933 261.143 297.68 262.483 297.68 265C297.68 269.417 301.996 271.99 313.319 271.99C324.204 271.99 330.52 268.358 330.52 261.927C330.52 254.494 324.141 254.214 313.319 253.597L307.189 253.262L309.254 250.299C310.378 250.579 312.194 250.802 314.198 250.802C322.078 250.802 327.52 247.169 327.52 240.962C327.52 238.39 326.099 236.601 324.974 235.314L330.5 234.923V229.977H318.761C317.324 229.977 315.695 229.516 313.005 229.516ZM315.82 261.368C318.825 261.536 321.202 261.648 321.202 263.44C321.202 266.455 316.259 266.682 312.633 266.682C308.253 266.682 305.063 266.009 305.063 263.774C305.063 262.654 305.875 261.705 306.69 260.811L315.82 261.368ZM313.384 244.932C309.254 244.932 307.565 243.03 307.565 240.292C307.565 236.657 310.129 235.147 313.57 235.147C317.135 235.147 319.263 236.881 319.263 240.179C319.263 243.088 316.885 244.932 313.384 244.932ZM341.966 225.156C345.594 225.156 347.659 223.31 347.659 220.122C347.659 216.938 345.594 215.203 341.966 215.203C338.4 215.203 336.335 216.938 336.335 220.122C336.335 223.309 338.4 225.156 341.966 225.156ZM346.75 252.829V229.977H334.584L333.896 234.329L337.23 235.306C337.858 235.472 338 235.778 338 236.393V252.829C338 253.669 337.473 253.836 336.596 253.949L333 254.34V259.023H351.75V254.34L348.155 253.949C347.214 253.836 346.75 253.726 346.75 252.829ZM374.773 251.667C373.27 252.169 371.483 252.559 369.729 252.559C366.353 252.559 365.5 251.275 365.5 247.976V234.445H374.25V228.859H365.952C365.451 228.859 365.5 228.856 365.5 228.465V221.039H359.509C358.821 226.625 355.5 229.078 350.5 229.639V234.445H355.504C356.005 234.445 355.5 234.84 355.5 235.174V249.821C355.5 256.141 358.568 258.823 366.01 258.823C369.577 258.823 373.644 257.761 376.335 256.588L374.773 251.667ZM255.173 216.354C253.526 214.881 250.854 214.881 249.206 216.354L243.268 221.661L250.801 228.395C252.553 227.866 254.56 228.22 255.956 229.468C257.359 230.723 257.753 232.533 257.146 234.103L264.408 240.593C266.165 240.052 268.191 240.402 269.594 241.658C271.556 243.41 271.556 246.25 269.594 248.002C267.633 249.756 264.456 249.756 262.494 248.002C261.019 246.683 260.464 244.747 261.213 243.123L254.25 237.071V252.998C254.25 253.21 255.369 253.491 255.768 253.846C257.728 255.598 257.823 258.438 255.861 260.193C253.9 261.945 250.769 261.945 248.809 260.193C246.849 258.438 246.873 255.599 248.834 253.846C249.319 253.414 249.25 253.087 250.5 252.868V236.793C249.25 236.574 249.341 236.248 248.858 235.814C247.373 234.487 247.015 232.539 247.776 230.909L240.349 224.27L220.738 241.798C219.089 243.271 219.089 245.66 220.738 247.131L249.34 272.693C250.986 274.165 253.658 274.165 255.306 272.693L283.775 247.248C285.421 245.776 285.421 243.387 283.775 241.915L255.173 216.354Z" fill="#F34F29"/>
<path fill-rule="evenodd" clip-rule="evenodd" d="M511.5 182.217C483.051 182.217 459.981 197.544 459.981 216.452C459.981 231.578 474.742 244.411 495.213 248.937C497.787 249.254 498.733 248.195 498.733 247.29C498.733 246.474 498.685 243.777 498.663 240.917C484.329 242.987 481.305 236.878 481.305 236.878C478.962 232.92 475.585 231.868 475.585 231.868C470.911 229.743 475.936 229.787 475.936 229.787C481.11 230.028 483.835 233.315 483.835 233.315C488.429 238.549 495.887 237.035 498.826 236.161C499.29 233.948 500.625 232.436 502.098 231.582C490.655 230.717 478.625 227.781 478.625 214.662C478.625 210.925 480.638 207.871 483.934 205.473C483.399 204.61 481.636 201.128 484.433 196.412C484.433 196.412 488.759 195.493 498.601 199.923C502.712 199.164 507.12 198.784 511.498 198.771C515.876 198.784 520.287 199.165 524.404 199.923C534.237 195.494 538.557 196.413 538.557 196.413C541.362 201.128 539.599 204.61 539.063 205.474C542.367 207.87 544.365 210.925 544.365 214.663C544.365 227.812 532.312 230.707 520.84 231.554C522.688 232.616 524.335 234.7 524.335 237.895C524.335 242.475 524.277 246.161 524.277 247.289C524.277 248.198 525.204 249.266 527.815 248.93C548.275 244.398 563.017 231.57 563.017 216.449C563.019 197.544 539.953 182.217 511.5 182.217Z" fill="#181616"/>
<path d="M479.495 231.37C479.38 231.541 478.977 231.592 478.611 231.475C478.236 231.362 478.027 231.131 478.148 230.96C478.257 230.786 478.662 230.737 479.036 230.854C479.411 230.966 479.624 231.2 479.496 231.37H479.495ZM481.581 232.918C481.336 233.069 480.855 232.999 480.528 232.759C480.191 232.52 480.128 232.201 480.378 232.048C480.63 231.896 481.096 231.967 481.431 232.206C481.77 232.448 481.837 232.764 481.58 232.918L481.581 232.918ZM483.612 234.888C483.297 235.035 482.78 234.898 482.462 234.593C482.144 234.29 482.144 233.925 482.468 233.778C482.787 233.631 483.296 233.763 483.618 234.065C483.935 234.375 483.935 234.741 483.612 234.889V234.888ZM486.395 236.794C486.113 237.001 485.511 236.945 485.071 236.663C484.621 236.387 484.496 235.995 484.778 235.788C485.065 235.581 485.669 235.639 486.113 235.919C486.561 236.194 486.696 236.587 486.395 236.793V236.794ZM490.236 237.899C490.11 238.168 489.531 238.29 488.948 238.176C488.364 238.059 487.984 237.745 488.1 237.475C488.221 237.204 488.805 237.078 489.392 237.199C489.973 237.315 490.355 237.626 490.235 237.899H490.236ZM494.45 238.105C494.466 238.386 493.97 238.621 493.358 238.626C492.743 238.636 492.244 238.407 492.236 238.129C492.236 237.844 492.721 237.612 493.336 237.606C493.949 237.598 494.45 237.825 494.45 238.105ZM498.373 237.661C498.446 237.936 498.022 238.22 497.413 238.295C496.815 238.369 496.263 238.198 496.185 237.924C496.113 237.643 496.545 237.361 497.142 237.287C497.751 237.216 498.296 237.382 498.373 237.662V237.661Z" fill="#181616"/>
<path d="M464.098 268.149H451.141C450.98 268.149 450.826 268.192 450.713 268.267C450.599 268.343 450.535 268.445 450.535 268.552V272.762C450.535 272.868 450.599 272.971 450.713 273.046C450.826 273.122 450.98 273.164 451.141 273.164H456.194V278.395C456.194 278.395 455.059 278.652 451.919 278.652C448.219 278.652 443.047 277.754 443.047 270.196C443.047 262.638 448.433 261.643 453.49 261.643C457.866 261.643 459.751 262.154 460.952 262.401C461.327 262.477 461.678 262.228 461.678 262.005L463.123 257.938C463.125 257.877 463.105 257.817 463.065 257.762C463.024 257.707 462.965 257.66 462.891 257.624C462.403 257.392 459.431 256.288 451.922 256.288C443.271 256.288 434.397 258.733 434.397 270.491C434.397 282.247 444.557 283.999 453.118 283.999C460.207 283.999 464.507 281.986 464.507 281.986C464.684 281.922 464.703 281.757 464.703 281.68V268.551C464.703 268.444 464.64 268.342 464.526 268.266C464.412 268.191 464.258 268.148 464.098 268.148V268.149ZM530.277 257.292H522.98C522.9 257.293 522.821 257.303 522.748 257.324C522.674 257.344 522.608 257.374 522.552 257.412C522.496 257.449 522.452 257.494 522.421 257.543C522.391 257.592 522.376 257.644 522.377 257.697L522.379 267.067H511.006V257.697C511.006 257.644 510.991 257.592 510.961 257.543C510.931 257.494 510.887 257.45 510.831 257.412C510.775 257.374 510.709 257.344 510.636 257.324C510.562 257.303 510.484 257.293 510.404 257.292H503.108C503.029 257.293 502.95 257.303 502.876 257.324C502.803 257.344 502.736 257.374 502.68 257.412C502.624 257.449 502.58 257.494 502.55 257.543C502.52 257.592 502.505 257.644 502.505 257.697V283.069C502.505 283.292 502.776 283.474 503.108 283.474H510.404C510.484 283.473 510.562 283.463 510.636 283.442C510.709 283.422 510.776 283.392 510.832 283.354C510.888 283.316 510.932 283.272 510.962 283.223C510.992 283.174 511.007 283.121 511.006 283.068V272.216H522.379L522.36 283.068C522.36 283.292 522.631 283.474 522.965 283.474H530.277C530.356 283.473 530.435 283.463 530.509 283.442C530.582 283.422 530.648 283.392 530.704 283.354C530.76 283.316 530.804 283.272 530.834 283.223C530.864 283.174 530.879 283.121 530.879 283.068V257.696C530.879 257.473 530.612 257.292 530.277 257.292ZM473.162 257.869C470.565 257.869 468.458 259.28 468.458 261.026C468.458 262.77 470.565 264.185 473.162 264.185C475.76 264.185 477.866 262.77 477.866 261.026C477.866 259.28 475.759 257.869 473.162 257.869ZM476.741 265.601H469.468C469.134 265.601 468.836 265.829 468.836 266.051V282.831C468.836 283.324 469.299 283.471 469.897 283.471H476.448C477.169 283.471 477.344 283.236 477.344 282.823V277.716V266.006C477.345 265.953 477.329 265.9 477.299 265.851C477.269 265.803 477.225 265.758 477.169 265.721C477.113 265.683 477.046 265.653 476.973 265.633C476.899 265.612 476.821 265.602 476.741 265.602V265.601ZM558.608 265.639H551.366C551.287 265.639 551.208 265.65 551.135 265.671C551.062 265.691 550.996 265.721 550.94 265.759C550.884 265.796 550.84 265.841 550.81 265.89C550.78 265.939 550.765 265.991 550.766 266.044V278.485C550.766 278.485 548.925 279.378 546.316 279.378C543.706 279.378 543.013 278.592 543.013 276.893V266.044C543.014 265.991 542.999 265.939 542.969 265.89C542.939 265.841 542.895 265.796 542.839 265.758C542.783 265.721 542.717 265.691 542.643 265.67C542.57 265.65 542.491 265.639 542.412 265.639H535.064C534.903 265.639 534.749 265.683 534.636 265.759C534.523 265.835 534.46 265.937 534.461 266.044V277.714C534.461 282.759 538.693 283.994 544.514 283.994C549.29 283.994 553.141 282.239 553.141 282.239C553.141 282.239 553.322 283.165 553.407 283.273C553.492 283.383 553.706 283.493 553.94 283.493L558.614 283.479C558.694 283.479 558.773 283.469 558.846 283.448C558.92 283.428 558.987 283.398 559.043 283.36C559.099 283.322 559.144 283.278 559.174 283.229C559.204 283.179 559.22 283.127 559.219 283.074L559.216 266.042C559.215 265.935 559.151 265.833 559.038 265.757C558.925 265.682 558.771 265.639 558.61 265.638L558.608 265.639ZM578.397 265.069C574.285 265.069 571.487 266.288 571.487 266.288V257.696C571.488 257.644 571.473 257.591 571.443 257.542C571.413 257.493 571.369 257.449 571.313 257.411C571.257 257.374 571.19 257.344 571.117 257.323C571.044 257.303 570.965 257.292 570.886 257.292H563.57C563.49 257.292 563.411 257.302 563.338 257.322C563.264 257.343 563.197 257.373 563.141 257.41C563.085 257.448 563.04 257.493 563.01 257.542C562.98 257.591 562.964 257.643 562.965 257.696V283.068C562.964 283.121 562.98 283.174 563.01 283.223C563.04 283.272 563.085 283.317 563.141 283.354C563.197 283.392 563.264 283.422 563.338 283.442C563.411 283.462 563.49 283.473 563.57 283.473H568.647C568.877 283.473 569.049 283.395 569.176 283.257C569.3 283.12 569.483 282.087 569.483 282.087C569.483 282.087 572.474 283.97 578.139 283.97C584.787 283.97 588.602 281.73 588.602 273.91C588.602 266.09 582.511 265.068 578.396 265.068L578.397 265.069ZM575.539 279.363C573.029 279.313 571.325 278.555 571.325 278.555V270.521C571.325 270.521 573.006 269.837 575.067 269.713C577.674 269.557 580.187 270.081 580.187 274.214C580.187 278.573 579.055 279.433 575.54 279.363L575.539 279.363ZM498.416 279.268C498.097 279.268 497.281 279.355 496.442 279.355C493.754 279.355 492.842 278.524 492.842 277.449V270.315H498.315C498.395 270.315 498.474 270.304 498.548 270.284C498.622 270.263 498.689 270.233 498.745 270.196C498.801 270.158 498.846 270.113 498.876 270.064C498.906 270.015 498.921 269.962 498.921 269.909V266.002C498.921 265.949 498.906 265.896 498.875 265.847C498.845 265.798 498.801 265.754 498.744 265.716C498.688 265.678 498.621 265.649 498.548 265.628C498.474 265.608 498.395 265.598 498.315 265.598H492.842L492.833 260.794C492.833 260.611 492.693 260.52 492.376 260.52H484.916C484.628 260.52 484.472 260.605 484.472 260.79V265.755C484.472 265.755 480.734 266.354 480.482 266.402C480.356 266.427 480.246 266.477 480.167 266.547C480.088 266.617 480.046 266.701 480.046 266.789V269.908C480.045 269.961 480.061 270.014 480.091 270.062C480.121 270.111 480.165 270.156 480.221 270.194C480.277 270.231 480.343 270.261 480.416 270.282C480.49 270.302 480.568 270.313 480.648 270.313H484.472V277.819C484.472 283.396 490.357 283.943 494.329 283.943C496.142 283.943 498.313 283.557 498.671 283.468C498.889 283.414 499.014 283.265 499.014 283.104L499.019 279.672C499.016 279.565 498.952 279.464 498.839 279.388C498.726 279.313 498.573 279.27 498.413 279.268L498.416 279.268Z" fill="#100E0F"/>
<path d="M665.073 280.414C670.699 280.414 675.265 274.305 675.265 266.781V253.148H665.073C659.448 253.148 654.881 259.256 654.881 266.781C654.881 274.305 659.448 280.414 665.073 280.414Z" fill="#0ACF83"/>
<path d="M654.871 239.5C654.871 231.975 659.437 225.867 665.063 225.867H675.254V253.148H665.063C659.437 253.148 654.871 247.039 654.871 239.514V239.5Z" fill="#A259FF"/>
<path d="M654.871 212.219C654.871 204.695 659.437 198.586 665.063 198.586H675.254V225.867H665.063C659.437 225.867 654.871 219.758 654.871 212.234V212.219Z" fill="#F24E1E"/>
<path d="M675.169 198.586H685.361C690.986 198.586 695.552 204.695 695.552 212.219C695.552 219.744 690.986 225.853 685.361 225.853H675.169V198.586Z" fill="#FF7262"/>
<path d="M695.659 239.5C695.659 247.025 691.093 253.133 685.468 253.133C679.842 253.133 675.169 247.025 675.169 239.5C675.169 231.975 679.735 225.867 685.361 225.867C690.986 225.867 695.552 231.975 695.552 239.5H695.659Z" fill="#1ABCFE"/>
<path d="M706.803 221.189V249.771H709.551V236.124H716.161V232.576H709.551V224.765H718.139V221.189H706.803ZM723.112 226.997C724.107 226.997 724.909 225.924 724.909 224.594C724.909 223.263 724.096 222.333 723.112 222.333C722.128 222.333 721.315 223.406 721.315 224.737C721.315 225.38 721.508 225.981 721.85 226.453C722.192 226.925 722.641 227.169 723.133 227.169L723.112 226.997ZM721.722 230.602V249.771H724.363V230.602H721.636H721.722ZM734.683 230.03C731.026 230.03 728.481 234.321 728.481 239.071C728.481 243.82 731.047 248.083 734.683 248.083C735.44 248.101 736.191 247.908 736.889 247.516C737.587 247.125 738.216 246.543 738.737 245.809V248.355C738.729 249.885 738.285 251.353 737.496 252.461C737.097 253.005 736.621 253.437 736.096 253.732C735.571 254.027 735.007 254.178 734.437 254.178C733.563 254.141 732.715 253.763 731.999 253.09L730.609 256.28C731.676 257.199 732.91 257.715 734.178 257.775C735.447 257.835 736.704 257.436 737.817 256.62C738.931 255.805 739.859 254.602 740.504 253.14C741.15 251.678 741.489 250.01 741.485 248.312V230.573H738.737V232.29C738.216 231.556 737.587 230.974 736.889 230.582C736.191 230.191 735.44 229.998 734.683 230.015V230.03ZM731.24 239.071C731.177 238.141 731.31 237.206 731.624 236.372C731.938 235.537 732.419 234.837 733.015 234.35C734.234 233.349 735.764 233.349 736.972 234.35C738.18 235.351 738.865 237.183 738.747 239.071C738.81 240.001 738.677 240.936 738.363 241.77C738.049 242.604 737.568 243.305 736.972 243.792C735.753 244.793 734.224 244.793 733.015 243.792C731.807 242.79 731.122 240.959 731.24 239.071Z" fill="black"/>
<path d="M751.399 233.778C750.608 233.782 749.851 234.203 749.292 234.951C748.733 235.699 748.418 236.712 748.415 237.769V249.9H745.667V230.731H748.415V232.347C749.249 230.859 750.575 230.001 751.966 230.03C753.72 229.973 755.356 231.231 756.222 233.277C757.291 231.274 758.831 230.058 760.5 230.03C763.633 230.03 765.58 233.406 765.59 237.583V249.786H762.842V237.626C762.922 236.869 762.839 236.096 762.602 235.4C762.365 234.704 761.983 234.113 761.503 233.698C761.022 233.283 760.463 233.06 759.891 233.056C759.319 233.053 758.759 233.268 758.275 233.678C757.795 234.097 757.414 234.692 757.179 235.392C756.944 236.092 756.864 236.867 756.949 237.626V249.757H754.308V237.64C754.305 236.583 753.99 235.57 753.431 234.822C752.872 234.075 752.114 233.653 751.324 233.649L751.399 233.778ZM780.274 232.776C779.648 231.903 778.896 231.21 778.063 230.74C777.23 230.271 776.333 230.034 775.429 230.044C771.333 230.044 768.478 234.679 768.478 240.058C768.478 245.437 771.365 250.072 775.429 250.072C776.333 250.082 777.23 249.845 778.063 249.375C778.896 248.906 779.648 248.213 780.274 247.339V249.514H783.022V230.344H780.274V232.776ZM771.184 240.215C771.045 237.926 771.879 235.723 773.344 234.522C774.809 233.32 776.552 233.32 778.114 234.522C778.829 235.115 779.408 235.96 779.789 236.964C780.17 237.968 780.338 239.093 780.274 240.215C780.413 242.504 779.579 244.707 778.114 245.909C776.648 247.111 774.905 247.111 773.344 245.909C772.629 245.315 772.049 244.47 771.668 243.466C771.287 242.462 771.12 241.338 771.184 240.215Z" fill="black"/>
<path d="M906 194.312L851.42 208.983L859.745 263.378L906 282.688L952.255 263.378L960.58 208.983L906 194.312Z" fill="#DD0031"/>
<path d="M906 194.312V204.122V204.078V248.84V282.688L952.255 263.378L960.58 208.983L906 194.312Z" fill="#C3002F"/>
<path d="M906 204.078L871.88 261.743H884.602L891.461 248.84H920.422L927.281 261.743H940.003L906 204.078ZM915.966 240.886H896.034L906 222.813L915.966 240.886Z" fill="white"/>
<defs>
<clipPath id="clip0_18_3">
<rect width="161" height="93" fill="white" transform="translate(383 12)"/>
</clipPath>
</defs>
</svg>
