<svg width="950" height="258" viewBox="0 0 950 258" fill="none" xmlns="http://www.w3.org/2000/svg">
<path d="M17.706 92.0471L10.965 25.2974H85.035L78.285 92.0365L47.955 99.4608L17.706 92.0471Z" fill="#E44F26"/>
<path d="M48 93.7873L72.51 87.788L78.276 30.7563H48V93.7873Z" fill="#F1662A"/>
<path d="M48 55.511H35.73L34.884 47.1279H48V38.9408H47.967H24.75L24.972 41.1392L27.249 63.6981H48V55.511Z" fill="#EBEBEB"/>
<path d="M48 76.7721L47.958 76.7827L37.632 74.3221L36.972 67.793H31.953H27.663L28.962 80.6445L47.958 85.3009L48 85.2903V76.7721Z" fill="#EBEBEB"/>
<path d="M47.967 55.511V63.6982H59.385L58.311 74.3168L47.967 76.7801V85.2983L66.978 80.6445L67.116 79.2619L69.294 57.7095L69.522 55.511H67.023H47.967Z" fill="white"/>
<path d="M47.967 38.9408V44.0263V47.1094V47.1279H70.335H70.365L70.551 45.2897L70.974 41.1392L71.196 38.9408H47.967Z" fill="white"/>
<path d="M185.065 86.1525L177.81 23.9375H257.557L250.293 86.1426L217.635 93.0625L185.065 86.1525Z" fill="#1572B6"/>
<path d="M217.684 87.7745L244.074 82.1827L250.283 29.0256H217.684V87.7745Z" fill="#33A9DC"/>
<path d="M217.684 51.5653H230.895L231.806 43.7517H217.684V36.1208H217.719H242.718L242.479 38.1674L240.027 59.1962H217.684V51.5653Z" fill="white"/>
<path d="M217.745 71.382L217.7 71.3918L206.581 69.0959L205.871 63.0104H200.466H195.847L197.246 74.9913L217.696 79.3313L217.745 79.3215V71.382Z" fill="#EBEBEB"/>
<path d="M230.046 58.8728L228.844 69.091L217.709 71.3869V79.3264L238.176 74.9913L238.328 73.7026L240.063 58.8728H230.046Z" fill="white"/>
<path d="M217.719 36.1208V40.8608V43.732V43.7517H193.635H193.602L193.402 42.0359L192.946 38.1674L192.707 36.1208H217.719Z" fill="#EBEBEB"/>
<path d="M217.684 51.5653V56.3053V59.1765V59.1962H206.736H206.704L206.504 57.4804L206.052 53.6119L205.812 51.5653H217.684Z" fill="#EBEBEB"/>
<g clip-path="url(#clip0_34_2)">
<path d="M435.016 24H341.028C341.012 24 341 24.0098 341 24.0219V98.8897C341 98.9018 341.012 98.9116 341.028 98.9116H435.016C435.031 98.9116 435.043 98.9018 435.043 98.8897V24.0219C435.043 24.0098 435.031 24 435.016 24Z" fill="#F7DF1E"/>
<path d="M400.512 78.1354C402.348 80.6227 404.92 82.3784 409.145 82.3784C412.818 82.3784 415.206 80.9153 415.206 78.8669C415.206 76.5259 412.818 75.6481 408.777 74.1849L406.573 73.4534C400.144 71.2587 395.92 68.6251 395.92 62.9189C395.92 57.6517 400.879 53.555 408.777 53.555C414.471 53.555 418.512 55.1644 421.267 59.2611L414.471 62.7726C413.002 60.5779 411.349 59.7001 408.777 59.7001C406.206 59.7001 404.553 61.0169 404.553 62.7726C404.553 64.821 406.206 65.6989 410.063 67.0157L412.267 67.7472C419.798 70.3808 424.022 72.8681 424.022 78.8669C424.022 85.1583 417.777 88.6698 409.328 88.6698C401.063 88.6698 395.736 85.5973 393.165 81.5005L400.512 78.1354ZM369.286 78.7206C370.756 80.6227 371.858 82.3784 374.98 82.3784C377.919 82.3784 379.756 81.5005 379.756 77.989V53.7013H388.573V77.6964C388.573 85.012 383.246 88.2309 375.348 88.2309C368.184 88.2309 364.143 85.3046 362.123 81.7931L369.286 78.7206Z" fill="black"/>
</g>
<path d="M59.5 201.518C63.3923 201.518 66.5476 198.255 66.5476 194.229C66.5476 190.203 63.3923 186.94 59.5 186.94C55.6077 186.94 52.4523 190.203 52.4523 194.229C52.4523 198.255 55.6077 201.518 59.5 201.518Z" fill="#61DAFB"/>
<path d="M59.5 221.034C65.032 226.599 70.4883 229.89 74.8836 229.89C76.3234 229.89 77.6875 229.577 78.8242 228.872C82.7648 226.52 84.2047 220.642 82.8406 212.256C82.6133 210.767 82.3102 209.277 81.9312 207.71C83.4469 207.24 84.8109 206.769 86.175 206.299C93.8289 203.242 98.0727 199.01 98.0727 194.386C98.0727 189.683 93.8289 185.451 86.175 182.472C84.8109 181.924 83.4469 181.454 81.9312 181.062C82.3102 179.494 82.6133 178.005 82.8406 176.516C84.1289 167.973 82.6891 162.016 78.7484 159.665C77.6117 158.959 76.2476 158.646 74.8078 158.646C70.4883 158.646 64.9562 161.938 59.4242 167.502C53.968 161.938 48.5117 158.646 44.1164 158.646C42.6766 158.646 41.3125 158.959 40.1758 159.665C36.2352 162.016 34.7953 167.894 36.1594 176.281C36.3867 177.77 36.6898 179.259 37.0687 180.827C35.5531 181.297 34.1891 181.767 32.825 182.237C25.1711 185.294 20.9273 189.526 20.9273 194.151C20.9273 198.853 25.1711 203.086 32.825 206.064C34.1891 206.613 35.5531 207.083 37.0687 207.475C36.6898 209.042 36.3867 210.531 36.1594 212.021C34.8711 220.407 36.3109 226.364 40.1758 228.636C41.3125 229.342 42.6766 229.655 44.1164 229.655C48.5117 229.812 53.968 226.52 59.5 221.034V221.034ZM55.2562 210.453C56.6203 210.531 58.0602 210.531 59.5 210.531C60.9398 210.531 62.3797 210.531 63.7437 210.453C62.3797 212.334 60.9398 214.058 59.5 215.704C58.0602 214.058 56.6203 212.334 55.2562 210.453V210.453ZM45.8594 202.38C46.6172 203.713 47.2992 204.967 48.1328 206.221C45.7836 205.907 43.5859 205.515 41.4641 205.045C42.1461 202.929 42.9039 200.734 43.8133 198.54C44.4195 199.794 45.1016 201.126 45.8594 202.38V202.38ZM41.4641 183.491C43.5859 183.021 45.7836 182.629 48.1328 182.316C47.375 183.57 46.6172 184.824 45.8594 186.156C45.1016 187.489 44.4195 188.743 43.8133 190.075C42.8281 187.802 42.0703 185.608 41.4641 183.491V183.491ZM45.632 194.229C46.6172 192.113 47.6781 189.997 48.8906 187.88C50.0273 185.843 51.3156 183.805 52.6039 181.767C54.8773 181.61 57.1508 181.532 59.5 181.532C61.925 181.532 64.1984 181.61 66.3961 181.767C67.7602 183.805 68.9727 185.843 70.1094 187.88C71.3219 189.997 72.3828 192.113 73.368 194.229C72.3828 196.345 71.3219 198.461 70.1094 200.578C68.9727 202.615 67.6844 204.653 66.3961 206.691C64.1227 206.848 61.8492 206.926 59.5 206.926C57.075 206.926 54.8016 206.848 52.6039 206.691C51.2398 204.653 50.0273 202.615 48.8906 200.578C47.6781 198.461 46.6172 196.345 45.632 194.229V194.229ZM75.2625 189.997L73.2164 186.078C72.4586 184.745 71.7766 183.491 70.943 182.237C73.2922 182.551 75.4898 182.943 77.6117 183.413C76.9297 185.608 76.1719 187.802 75.2625 189.997ZM75.2625 198.461C76.1719 200.656 76.9297 202.85 77.6117 204.967C75.4898 205.437 73.2922 205.829 70.943 206.142C71.7008 204.888 72.4586 203.634 73.2164 202.302C73.8984 201.126 74.5805 199.794 75.2625 198.461ZM77.0055 225.658C76.3992 226.05 75.6414 226.207 74.8078 226.207C71.0945 226.207 66.4719 223.072 61.925 218.369C64.1226 215.939 66.2445 213.196 68.3664 210.14C71.9281 209.826 75.3383 209.277 78.5211 208.494C78.9 209.904 79.1273 211.315 79.3547 212.726C80.4156 219.388 79.582 224.169 77.0055 225.658V225.658ZM80.9461 184.354C89.4336 186.862 94.5109 190.702 94.5109 194.229C94.5109 197.286 91.025 200.342 84.8867 202.772C83.6742 203.242 82.3102 203.713 80.9461 204.104C79.9609 200.891 78.7484 197.599 77.2328 194.229C78.7484 190.859 80.0367 187.567 80.9461 184.354ZM74.8836 162.251C75.7172 162.251 76.3992 162.408 77.0812 162.8C79.582 164.289 80.4914 168.992 79.4305 175.732C79.2031 177.064 78.9 178.475 78.5969 179.964C75.4141 179.259 72.0039 178.71 68.4422 178.319C66.3961 175.262 64.1984 172.519 62.0008 170.089C66.5477 165.465 71.1703 162.251 74.8836 162.251V162.251ZM63.7437 178.005C62.3797 177.927 60.9398 177.927 59.5 177.927C58.0602 177.927 56.6203 177.927 55.2562 178.005C56.6203 176.124 58.0602 174.4 59.5 172.754C60.9398 174.4 62.3797 176.202 63.7437 178.005ZM41.9945 162.8C42.6008 162.408 43.3586 162.251 44.1922 162.251C47.9055 162.251 52.5281 165.386 57.075 170.089C54.8773 172.519 52.7555 175.262 50.6336 178.319C47.0719 178.632 43.6617 179.181 40.4789 179.964C40.1 178.554 39.8726 177.143 39.6453 175.732C38.5844 169.07 39.418 164.367 41.9945 162.8V162.8ZM38.0539 204.104C29.5664 201.596 24.4891 197.756 24.4891 194.229C24.4891 191.172 27.975 188.116 34.1133 185.686C35.3258 185.216 36.6898 184.745 38.0539 184.354C39.0391 187.567 40.2516 190.859 41.7672 194.229C40.2516 197.599 38.9633 200.969 38.0539 204.104ZM39.6453 212.726C39.8726 211.394 40.1758 209.983 40.4789 208.494C43.6617 209.199 47.0719 209.748 50.6336 210.14C52.6797 213.196 54.8773 215.939 57.075 218.369C52.5281 222.993 47.9055 226.207 44.1922 226.207C43.3586 226.207 42.6766 226.05 41.9945 225.658C39.418 224.169 38.5844 219.388 39.6453 212.726V212.726ZM36.4625 245.017C38.1297 242.901 38.2055 240.55 37.2961 238.198C36.3867 235.847 34.4922 234.75 32.143 234.671C29.3391 234.593 26.4594 234.671 23.6555 234.671H23.125V254.971H25.3984V247.29H28.9602C29.4148 247.29 29.7937 247.447 30.0211 247.839L34.568 255.128C34.6437 255.285 34.8711 255.52 35.0227 255.52H37.9781C36.1594 252.62 34.4164 249.877 32.5976 247.055C34.1891 246.82 35.5531 246.271 36.4625 245.017V245.017ZM25.3984 244.86V237.101H26.232C27.975 237.101 29.7937 237.023 31.5367 237.18C33.5828 237.258 35.0227 238.904 35.0227 241.02C35.0227 243.136 33.3555 244.782 31.3094 244.86C29.4906 244.939 27.6719 244.86 25.3984 244.86V244.86ZM54.7258 245.879C53.5133 240.393 48.6633 238.982 44.95 240.706C42.0703 242.039 40.782 244.625 40.7062 247.839C40.6305 250.268 41.3125 252.463 43.1312 254.109C45.1773 255.99 47.6781 256.225 50.2547 255.755C51.6945 255.441 52.9828 254.736 53.968 253.639C53.5891 253.09 53.2101 252.541 52.8312 252.071C50.7094 253.952 48.3602 254.579 45.7836 253.325C44.1164 252.463 43.2828 250.347 43.1312 248.779H54.8773V247.76C54.9531 247.055 54.8773 246.428 54.7258 245.879V245.879ZM43.2828 247.133C43.0555 244.782 45.3289 242.274 47.8297 242.274C50.7094 242.196 52.5281 243.998 52.6039 247.133H43.2828V247.133ZM66.5477 240.315C65.4109 240.079 64.1984 240.001 63.0617 240.079C61.243 240.236 59.6516 241.098 58.3633 242.509C58.7422 243.058 59.0453 243.606 59.5 244.233C59.6516 244.077 59.8031 243.92 59.9547 243.842C61.1672 242.666 62.607 242.039 64.35 242.196C65.7141 242.274 67.0023 242.744 67.3812 244.155C67.6844 245.252 67.6086 246.428 67.6844 247.604C67.457 247.604 67.3812 247.525 67.3055 247.447C65.4867 245.879 63.4406 245.566 61.243 246.114C59.1969 246.663 57.9086 248.309 57.757 250.425C57.6055 252.855 58.6664 254.658 60.7125 255.52C62.0008 256.068 63.4406 256.068 64.8047 255.755C65.8656 255.52 66.3203 254.893 67.8359 254.031V255.049H69.9578C69.9578 251.914 70.0336 248.074 69.9578 244.469C69.9578 242.196 68.6695 240.785 66.5477 240.315ZM67.6086 250.19C67.5328 250.425 67.6086 250.66 67.6086 250.895C67.6086 252.541 67.2297 253.09 65.7141 253.717C64.6531 254.109 63.5164 254.266 62.3797 253.874C61.0914 253.482 60.182 252.306 60.182 250.974C60.1062 249.641 60.9398 248.309 62.2281 247.917C63.9711 247.29 65.5625 247.682 67.0023 248.779C67.457 249.171 67.7601 249.563 67.6086 250.19V250.19ZM79.4305 242.431C81.4008 241.804 83.2195 242.196 84.5836 243.92L84.8109 244.077C85.3414 243.606 85.7961 243.136 86.4023 242.588C86.175 242.352 86.0992 242.196 85.9477 241.961C83.75 239.531 79.4305 239.217 76.7781 241.177C73.0648 243.998 73.1406 249.485 74.9594 252.385C76.7023 255.128 79.2031 256.068 82.1586 255.676C83.9016 255.441 85.3414 254.579 86.4781 253.09C85.9477 252.62 85.4172 252.15 84.8867 251.601C84.7352 251.758 84.6594 251.836 84.5836 251.993C82.5375 254.344 79.1273 254.109 77.3086 251.601C76.2477 250.112 76.0203 248.387 76.3234 246.663C76.475 244.704 77.4602 243.136 79.4305 242.431ZM95.193 253.09C95.0414 253.168 94.9656 253.247 94.9656 253.247C94.3594 253.717 93.7531 253.795 93.0711 253.56C92.3891 253.247 92.3133 252.62 92.2375 251.993V243.058C92.2375 242.901 92.2375 243.215 92.3133 242.431H95.193V240.079H92.1617V236.161H89.8883V240.393H87.918C87.7664 240.393 87.5391 240.55 87.5391 240.706C87.4633 241.255 87.5391 241.647 87.5391 242.431H89.9641V252.463C89.9641 253.717 90.2672 254.814 91.3281 255.441C92.4648 256.147 94.6625 255.99 95.6476 255.128C95.7992 255.049 95.875 254.736 95.875 254.658C95.6477 254.187 95.4203 253.639 95.193 253.09V253.09Z" fill="#61DAFB"/>
<path d="M255.331 194.744C252.318 193.719 249.658 191.875 247.657 189.425C245.451 186.696 242.643 184.501 239.446 183.008C236.25 181.515 232.75 180.764 229.215 180.813C224.459 180.48 219.751 181.929 216.028 184.871C212.305 187.813 209.841 192.032 209.125 196.688C210.534 194.36 212.655 192.533 215.182 191.47C217.709 190.407 220.512 190.164 223.188 190.775C226.196 191.83 228.851 193.684 230.862 196.133C233.08 198.841 235.893 201.013 239.089 202.485C242.285 203.957 245.779 204.689 249.304 204.626C254.06 204.959 258.768 203.51 262.491 200.568C266.214 197.626 268.678 193.407 269.393 188.751C268.01 191.107 265.896 192.962 263.364 194.041C260.832 195.12 258.016 195.367 255.331 194.744ZM203.098 214.509C206.112 215.534 208.771 217.377 210.772 219.827C212.978 222.557 215.787 224.752 218.983 226.244C222.179 227.737 225.679 228.488 229.215 228.439C233.97 228.772 238.678 227.323 242.401 224.381C246.124 221.439 248.589 217.22 249.304 212.564C247.895 214.893 245.774 216.72 243.247 217.782C240.72 218.845 237.917 219.088 235.241 218.477C232.233 217.423 229.578 215.569 227.567 213.12C225.344 210.418 222.529 208.251 219.334 206.78C216.14 205.308 212.649 204.572 209.125 204.626C204.369 204.293 199.661 205.742 195.938 208.684C192.216 211.626 189.751 215.845 189.036 220.502C190.419 218.145 192.533 216.29 195.065 215.211C197.597 214.132 200.414 213.886 203.098 214.509Z" fill="black"/>
<path d="M537.714 239.678H540.645C541.98 239.678 542.95 239.893 543.553 240.323C544.157 240.753 544.458 241.437 544.458 242.374C544.458 243.011 544.326 243.533 544.062 243.94C543.798 244.348 543.446 244.594 543.008 244.676V244.749C543.605 244.899 544.036 245.181 544.3 245.594C544.564 246.007 544.696 246.555 544.696 247.24C544.696 248.212 544.387 248.97 543.765 249.514C543.145 250.058 542.301 250.329 541.236 250.329H537.714V239.678V239.678ZM539.711 243.897H540.87C541.411 243.897 541.803 243.802 542.046 243.613C542.289 243.423 542.41 243.11 542.41 242.673C542.41 242.265 542.278 241.973 542.014 241.795C541.75 241.618 541.332 241.529 540.761 241.529H539.711V243.897V243.897ZM539.711 245.689V248.465H541.012C541.562 248.465 541.968 248.346 542.23 248.108C542.493 247.87 542.623 247.506 542.623 247.015C542.623 246.132 542.065 245.689 540.948 245.689H539.711V245.689ZM555.127 244.989C555.127 246.752 554.741 248.108 553.968 249.055C553.195 250.002 552.087 250.476 550.644 250.476C549.2 250.476 548.092 250.002 547.32 249.055C546.546 248.108 546.16 246.748 546.16 244.975C546.16 243.202 546.548 241.849 547.323 240.914C548.099 239.978 549.21 239.511 550.657 239.511C552.105 239.511 553.211 239.982 553.978 240.924C554.744 241.866 555.127 243.222 555.127 244.989V244.989ZM548.254 244.989C548.254 246.179 548.453 247.075 548.853 247.678C549.253 248.28 549.849 248.581 550.644 248.581C552.237 248.581 553.034 247.384 553.034 244.989C553.034 242.59 552.241 241.391 550.656 241.391C549.862 241.391 549.262 241.693 548.859 242.298C548.455 242.903 548.254 243.799 548.254 244.989V244.989ZM565.629 244.989C565.629 246.752 565.243 248.108 564.47 249.055C563.697 250.002 562.589 250.476 561.146 250.476C559.702 250.476 558.594 250.002 557.822 249.055C557.048 248.108 556.662 246.748 556.662 244.975C556.662 243.202 557.05 241.849 557.825 240.914C558.601 239.978 559.712 239.511 561.159 239.511C562.607 239.511 563.713 239.982 564.48 240.924C565.245 241.866 565.629 243.222 565.629 244.989ZM558.755 244.989C558.755 246.179 558.954 247.075 559.354 247.678C559.754 248.28 560.35 248.581 561.145 248.581C562.738 248.581 563.535 247.384 563.535 244.989C563.535 242.59 562.743 241.391 561.158 241.391C560.363 241.391 559.764 241.693 559.36 242.298C558.956 242.903 558.755 243.799 558.755 244.989ZM571.215 250.329H569.218V241.558H566.66V239.678H573.772V241.558H571.215V250.329ZM580.781 247.372C580.781 248.334 580.475 249.092 579.863 249.645C579.251 250.199 578.399 250.476 577.309 250.476C576.304 250.476 575.415 250.262 574.642 249.835V247.737C575.278 248.057 575.816 248.283 576.256 248.414C576.696 248.546 577.098 248.611 577.464 248.611C577.902 248.611 578.238 248.516 578.472 248.328C578.707 248.138 578.824 247.857 578.824 247.483C578.824 247.274 578.772 247.088 578.669 246.925C578.566 246.762 578.415 246.606 578.215 246.455C578.015 246.304 577.608 246.064 576.994 245.734C576.419 245.428 575.987 245.134 575.699 244.852C575.411 244.57 575.182 244.243 575.01 243.869C574.838 243.495 574.752 243.058 574.752 242.558C574.752 241.616 575.035 240.875 575.599 240.336C576.164 239.797 576.945 239.528 577.942 239.528C578.431 239.528 578.898 239.593 579.343 239.724C579.787 239.856 580.252 240.04 580.737 240.278L580.093 242.033C579.591 241.801 579.175 241.638 578.846 241.545C578.517 241.453 578.195 241.407 577.877 241.407C577.499 241.407 577.209 241.506 577.007 241.705C576.805 241.904 576.704 242.164 576.704 242.485C576.704 242.684 576.745 242.858 576.827 243.006C576.908 243.154 577.038 243.298 577.216 243.436C577.394 243.575 577.816 243.823 578.482 244.183C579.362 244.66 579.966 245.137 580.292 245.615C580.618 246.093 580.781 246.677 580.781 247.372V247.372ZM586.123 250.329H584.126V241.558H581.568V239.678H588.68V241.558H586.123V250.329ZM592.127 246.242V250.329H590.13V239.678H592.874C594.154 239.678 595.101 239.942 595.715 240.468C596.329 240.996 596.637 241.796 596.637 242.869C596.637 243.496 596.484 244.053 596.179 244.541C595.874 245.029 595.443 245.412 594.885 245.688C596.302 248.082 597.225 249.629 597.655 250.329H595.439L593.191 246.242H592.127V246.242ZM592.127 244.406H592.771C593.403 244.406 593.869 244.288 594.17 244.049C594.471 243.811 594.621 243.437 594.621 242.927C594.621 242.422 594.467 242.063 594.16 241.849C593.853 241.635 593.377 241.528 592.733 241.528H592.127V244.406V244.406ZM604.606 250.329L603.923 247.794H600.489L599.806 250.329H597.654L600.978 239.635H603.419L606.757 250.329H604.606V250.329ZM603.446 245.9C602.815 243.603 602.459 242.303 602.38 242.002C602.3 241.701 602.244 241.463 602.209 241.289C602.068 241.91 601.662 243.447 600.991 245.9H603.446ZM614.45 243C614.45 244.147 614.133 245.024 613.5 245.63C612.867 246.238 611.966 246.541 610.797 246.541H609.941V250.329H607.944V239.678H610.952C612.095 239.678 612.963 239.956 613.559 240.512C614.153 241.069 614.45 241.898 614.45 243V243ZM609.941 244.691H610.598C611.212 244.691 611.671 244.554 611.976 244.279C612.281 244.004 612.434 243.605 612.434 243.081C612.434 242.551 612.305 242.16 612.05 241.908C611.795 241.655 611.394 241.528 610.849 241.528H609.94V244.691H609.941ZM583.092 195.21C581.695 194.69 579.684 194.606 577.058 194.606H567.629V210.536H577.789C579.552 210.536 580.79 210.338 581.502 210.188C582.758 209.935 583.809 209.447 584.653 208.853C585.496 208.261 586.19 207.365 586.734 206.23C587.277 205.096 587.55 203.771 587.55 202.287C587.55 200.547 587.156 199.116 586.368 197.834C585.582 196.551 584.489 195.73 583.092 195.21ZM581.643 188.351C583.031 187.884 584.077 187.039 584.779 185.959C585.483 184.878 585.834 183.487 585.834 181.853C585.834 180.306 585.506 178.926 584.85 177.748C584.193 176.571 583.256 175.772 582.038 175.337C580.818 174.904 578.727 174.692 575.764 174.692H567.629V189.03H576.439C578.859 189.03 580.593 188.712 581.643 188.351V188.351ZM613.416 162.845C613.416 156.63 608.96 151.593 603.464 151.593H548.7C543.204 151.593 538.748 156.63 538.748 162.845V224.773C538.748 230.988 543.204 236.025 548.7 236.025H603.464C608.96 236.025 613.416 230.988 613.416 224.773V162.845V162.845ZM591.98 208.362C591.165 210.238 590.157 211.686 588.957 212.704C587.757 213.721 586.252 214.652 584.442 215.171C582.632 215.691 580.415 216.112 577.789 216.112H561.994V169.117H577.537C580.687 169.117 583.213 169.611 585.117 170.554C587.021 171.498 588.511 172.96 589.59 174.921C590.668 176.883 591.208 178.94 591.208 181.082C591.208 183.075 590.729 184.954 589.774 186.714C588.817 188.475 587.373 189.897 585.441 190.977C587.935 191.804 589.853 193.217 591.194 195.209C592.534 197.203 593.205 199.557 593.205 202.271C593.204 204.456 592.797 206.486 591.98 208.362V208.362Z" fill="#5B4282"/>
<path d="M848.75 197.283V236.906H896H943.25V197.283V157.66H896H848.75V197.283Z" fill="#007ACC"/>
<path d="M924.903 194.125C927.166 194.566 929.223 195.56 930.813 196.981C931.689 197.749 932.449 198.605 933.078 199.528C933.108 199.63 928.997 201.942 926.507 203.238C926.415 203.289 926.058 202.955 925.653 202.457C925.199 201.799 924.553 201.249 923.776 200.857C923 200.466 922.117 200.246 921.211 200.218C918.346 200.054 916.486 201.314 916.517 203.414C916.492 203.929 916.632 204.441 916.922 204.897C917.553 205.992 918.72 206.646 922.396 207.979C929.146 210.418 932.055 212.029 933.871 214.318C934.882 215.764 935.503 217.378 935.692 219.047C935.881 220.715 935.633 222.398 934.964 223.978C934.048 225.713 932.594 227.21 930.754 228.314C928.914 229.417 926.755 230.088 924.502 230.255C922.108 230.486 919.69 230.465 917.303 230.193C913.645 229.69 910.276 228.218 907.688 225.993C906.71 225.07 905.883 224.042 905.227 222.936C905.504 222.764 905.795 222.609 906.098 222.472C906.516 222.271 908.123 221.504 909.608 220.774L912.308 219.453L912.875 220.152C913.836 221.304 915.06 222.285 916.476 223.038C917.901 223.694 919.516 224.004 921.139 223.935C922.762 223.866 924.331 223.421 925.67 222.648C926.356 222.083 926.785 221.335 926.881 220.533C926.977 219.731 926.735 218.926 926.196 218.258C925.46 217.378 923.962 216.636 919.703 215.088C916.362 214.14 913.321 212.571 910.806 210.498C909.607 209.352 908.721 207.999 908.211 206.535C907.833 204.868 907.778 203.16 908.045 201.478C908.546 199.542 909.744 197.782 911.477 196.437C913.21 195.091 915.395 194.225 917.735 193.955C920.121 193.709 922.538 193.767 924.903 194.125V194.125ZM902.72 197.433L902.75 200.68H890.451V229.989H881.751V200.68H869.449V197.499C869.415 196.407 869.45 195.315 869.553 194.227C869.597 194.176 877.083 194.15 886.158 194.165L902.672 194.201L902.72 197.433Z" fill="white"/>
<path d="M616.288 63.2796C613.416 63.2829 610.582 63.8583 608.001 64.9621C607.193 63.7874 606.569 62.5228 606.146 61.2023C605.902 60.1672 605.846 59.1051 605.979 58.0548C606.258 56.899 606.62 55.7599 607.064 54.6441C607.047 54.4981 606.864 53.8086 605.025 53.7857C603.186 53.7628 601.602 54.0918 601.432 54.5182C601.113 55.2969 600.856 56.0943 600.664 56.9045C599.142 60.1937 597.269 63.3495 595.069 66.3298C593.836 64.5598 593.329 62.4746 593.632 60.4183C593.911 59.2625 594.273 58.1233 594.716 57.0076C594.7 56.8616 594.517 56.172 592.678 56.1491C590.839 56.1263 589.255 56.4553 589.085 56.8817C588.915 57.308 588.699 58.3123 588.317 59.268C587.935 60.2237 583.473 68.9566 582.304 71.2084C581.702 72.353 581.183 73.2858 580.817 73.9153C580.8 73.9562 580.778 73.9954 580.752 74.0326C580.425 74.5734 580.252 74.8681 580.252 74.8681V74.8824C580.001 75.2773 579.733 75.6435 579.599 75.6435C579.365 74.826 579.377 73.9696 579.632 73.157C580.285 70.1268 581.885 65.4171 581.869 65.254C581.869 65.1653 582.17 64.3469 580.834 63.9234C580.524 63.7943 580.176 63.7524 579.838 63.8037C579.5 63.8549 579.188 63.9967 578.946 64.2096C578.828 64.2096 578.746 64.4585 578.746 64.4585C578.746 64.4585 580.2 59.1621 575.973 59.1621C574.327 59.4522 572.764 60.0276 571.375 60.8546C569.987 61.6816 568.801 62.7435 567.888 63.9778C566.752 64.5186 564.331 65.6746 561.741 66.9193C560.761 67.4028 559.735 67.8864 558.785 68.3499C558.719 68.2927 558.651 68.2183 558.586 68.1611C553.441 63.3597 543.984 59.9719 544.393 53.5482C544.543 51.2076 545.461 45.0614 562.551 37.5962C576.617 31.5244 587.811 33.2068 589.748 36.938C592.521 42.2659 583.751 52.1576 569.218 53.5911C567.61 53.8768 565.95 53.8423 564.359 53.4902C562.769 53.1381 561.289 52.4773 560.029 51.5567C559.262 50.8242 559.144 50.7813 558.86 50.9272C558.393 51.1475 558.693 51.8056 558.86 52.1862C559.414 53.065 560.164 53.8377 561.065 54.4584C561.966 55.0791 563 55.5353 564.106 55.8001C569.823 56.8823 575.784 56.3648 581.147 54.3207C589.967 51.3364 596.826 43.0384 594.814 36.0882C592.792 29.035 579.429 26.7087 566.781 30.6517C558.859 32.9867 551.539 36.6648 545.239 41.4761C538.271 47.1845 537.17 52.1433 537.621 54.2235C539.254 61.6 550.854 66.3985 555.495 69.9609C555.26 70.0782 555.045 70.1812 554.862 70.267C552.539 71.2771 543.687 75.3316 541.469 79.6179C538.964 84.4822 541.871 87.9588 543.792 88.428C546.686 89.0349 549.724 88.835 552.482 87.8562C555.24 86.8775 557.581 85.1688 559.177 82.9686C560.536 81.1436 561.371 79.058 561.612 76.8893C561.852 74.7206 561.491 72.5331 560.558 70.5131C560.543 70.4805 560.521 70.4505 560.493 70.4244L562.313 69.4888C563.498 68.8736 564.668 68.3042 565.671 67.8349C564.991 69.553 564.591 71.3467 564.485 73.1627C564.254 75.9462 565.226 78.7039 567.209 80.8884C567.511 81.1159 567.861 81.2887 568.239 81.3967C568.618 81.5048 569.017 81.5459 569.414 81.5179C571.374 81.5179 572.272 80.0872 573.255 78.3876C574.457 76.3102 575.542 73.8952 575.542 73.8952C575.542 73.8952 574.19 80.422 577.864 80.422C579.2 80.422 580.553 78.8997 581.157 78.1329V78.1472C581.157 78.1472 581.19 78.1043 581.258 78.0013L581.474 77.6951V77.6665C582.01 76.8482 583.212 74.9883 584.998 71.9009C587.305 67.9207 589.526 62.9449 589.526 62.9449C589.74 64.0384 590.036 65.1185 590.411 66.1782C590.949 67.4627 591.585 68.7141 592.315 69.9237C591.78 70.5818 591.446 70.9481 591.446 70.9481L591.463 70.9624C591.028 71.4602 590.561 72.001 590.042 72.5275C588.497 74.0157 587.063 75.5898 585.75 77.2402C585.555 77.5173 585.487 77.8493 585.562 78.1683C585.637 78.4873 585.848 78.7694 586.151 78.957C586.839 79.2704 587.623 79.3837 588.389 79.2803C589.544 79.2232 590.679 78.9959 591.747 78.6079C592.779 78.2897 593.753 77.8415 594.638 77.2774C595.55 76.7238 596.284 75.974 596.77 75.1001C597.255 74.2262 597.476 73.2575 597.411 72.2872C597.308 71.0649 596.952 69.8693 596.359 68.7591C596.526 68.5531 596.686 68.3499 596.843 68.1439C598.7 65.7157 600.374 63.1838 601.853 60.5642C602.068 61.6577 602.363 62.7378 602.739 63.7975C603.182 64.9076 603.729 65.9842 604.372 67.0166C602.235 68.4564 600.553 70.349 599.482 72.5161C598.43 75.18 599.247 76.3789 600.789 76.6564C601.632 76.7074 602.476 76.556 603.229 76.2187C604.336 75.9 605.378 75.4307 606.319 74.828C607.31 74.3154 608.141 73.5949 608.736 72.7313C609.33 71.8677 609.671 70.8882 609.726 69.8808C609.652 68.8752 609.392 67.8867 608.958 66.9536C611.777 65.9888 614.834 65.6812 617.83 66.0609C625.781 66.8792 627.352 71.2256 627.051 73.0569C626.91 73.7061 626.612 74.3213 626.177 74.8612C625.742 75.4012 625.18 75.8533 624.529 76.1872C623.977 76.4933 623.794 76.5964 623.843 76.8167C623.909 77.14 624.17 77.1228 624.644 77.0656C625.842 76.7394 626.899 76.1026 627.676 75.2393C628.453 74.376 628.913 73.3268 628.995 72.2299C629.246 67.9379 624.569 63.231 616.298 63.2739L616.288 63.2796ZM554.943 81.3863C552.304 83.9042 548.629 84.8542 547.042 84.0502C545.337 83.1918 546.006 79.472 549.247 76.8052C551.169 75.2895 553.246 73.9323 555.453 72.7507C555.838 72.5447 556.407 72.2528 557.086 71.8923L557.269 71.8036L557.671 71.5833C558.25 73.2823 558.302 75.0857 557.823 76.8084C557.344 78.5311 556.35 80.1111 554.943 81.3863V81.3863ZM574.154 69.9409C573.236 71.9009 571.315 76.9225 570.146 76.6421C569.143 76.4075 568.512 72.6019 569.946 68.8421C570.67 67.0322 571.725 65.3372 573.069 63.8233C574.506 62.4184 576.094 61.9491 576.476 62.5214C576.127 65.0819 575.345 67.5826 574.154 69.9409V69.9409ZM590.006 76.5849C589.62 76.7595 589.255 76.871 589.088 76.7909C588.97 76.7337 589.255 76.5048 589.255 76.5048C589.255 76.5048 591.244 74.6306 592.028 73.7836C592.479 73.2858 593.008 72.7021 593.583 72.0411V72.2299C593.583 74.4675 591.11 75.9754 590.009 76.5906L590.006 76.5849ZM602.236 74.1413C601.951 73.9668 602 73.3802 602.954 71.5518C603.617 70.3775 604.544 69.3324 605.679 68.4787C605.852 68.9118 605.943 69.3673 605.946 69.8264C605.959 70.8037 605.603 71.7572 604.932 72.5382C604.261 73.3193 603.314 73.884 602.239 74.1442L602.236 74.1413Z" fill="#CD6799"/>
<path d="M903.667 47.2971C897.898 47.2657 895.011 50.9616 894.982 56.3059C894.964 59.7462 896.346 62.1909 898.188 63.3164C897.277 64.3341 896.519 65.2244 895.835 66.1031C895.15 66.9836 894.731 67.9148 894.725 68.9383C894.718 70.1941 895.127 71.3601 896.368 72.0151C895.04 73.5442 894.279 74.6546 894.268 76.7472C894.248 80.4187 896.838 82.5719 903.664 82.609C910.227 82.6447 914.051 79.6459 914.08 74.2997C914.114 68.1205 910.269 67.8664 903.747 67.3183L900.053 67.0195L901.312 64.5632C901.988 64.799 903.082 64.9907 904.29 64.9973C909.04 65.0231 912.338 62.0205 912.366 56.8602C912.378 54.7221 911.529 53.2304 910.856 52.1568L914.19 51.8498L914.212 47.7371L907.135 47.6986C906.269 47.6939 905.289 47.3059 903.667 47.2971V47.2971ZM905.22 73.7872C907.031 73.9363 908.464 74.037 908.456 75.5268C908.442 78.0336 905.461 78.2059 903.275 78.1941C900.634 78.1797 898.714 77.6101 898.724 75.7516C898.729 74.8209 899.223 74.0341 899.718 73.2938L905.22 73.7872V73.7872ZM903.826 60.1148C901.336 60.1012 900.326 58.514 900.339 56.2375C900.355 53.2161 901.908 51.9688 903.982 51.9801C906.131 51.9917 907.406 53.4402 907.391 56.182C907.378 58.6006 905.937 60.1262 903.826 60.1148ZM921.147 43.7669C923.334 43.7788 924.587 42.2512 924.601 39.6004C924.616 36.9534 923.379 35.5042 921.192 35.4923C919.042 35.4806 917.789 36.9163 917.775 39.5633C917.76 42.2132 918.997 43.7552 921.147 43.7669ZM923.906 66.7888L924.009 47.7903L916.674 47.7505L916.24 51.3668L918.246 52.1895C918.623 52.3299 918.708 52.5849 918.705 53.0957L918.631 66.7601C918.627 67.4586 918.308 67.5962 917.779 67.6871L915.609 68.0004L915.588 71.8939L926.892 71.9554L926.913 68.0618L924.748 67.725C924.181 67.6281 923.902 67.5346 923.906 66.7888ZM940.805 65.9147C939.897 66.3277 938.818 66.646 937.76 66.6403C935.725 66.6292 935.217 65.5583 935.232 62.8156L935.293 51.567L940.568 51.5956L940.593 46.9517L935.591 46.9245C935.289 46.9228 935.318 46.9202 935.32 46.5951L935.353 40.4214L931.741 40.4018C931.302 45.0435 929.288 47.0723 926.271 47.5221L926.25 51.5178L929.266 51.5342C929.568 51.5358 929.262 51.862 929.261 52.1398L929.194 64.3172C929.166 69.5714 931.003 71.8114 935.49 71.8358C937.641 71.8475 940.097 70.9776 941.725 70.0111L940.805 65.9147V65.9147ZM868.861 36.1645C867.875 34.935 866.264 34.9262 865.264 36.145L861.659 40.5382L866.171 46.1608C867.229 45.7272 868.438 46.0282 869.274 47.0702C870.114 48.1179 870.343 49.6238 869.97 50.9277L874.319 56.3468C875.381 55.9031 876.601 56.2004 877.441 57.249C878.616 58.7118 878.603 61.0728 877.412 62.5236C876.222 63.9754 874.307 63.965 873.131 62.5003C872.248 61.3986 871.922 59.7872 872.381 58.4392L868.211 53.3851L868.139 66.6269C868.138 66.8024 868.811 67.0401 869.05 67.3368C870.224 68.7996 870.268 71.1609 869.078 72.6136C867.887 74.0635 866 74.0532 864.826 72.5905C863.652 71.1249 863.679 68.7649 864.87 67.3141C865.164 66.9562 865.124 66.6839 865.879 66.5059L865.951 53.1415C865.199 52.9554 865.255 52.6854 864.966 52.3225C864.076 51.2142 863.87 49.5942 864.336 48.2416L859.888 42.6974L847.986 57.205C846.985 58.4247 846.974 60.4104 847.962 61.639L865.09 82.9845C866.076 84.2131 867.686 84.2219 868.687 83.004L885.965 61.9431C886.964 60.7244 886.975 58.7386 885.989 57.5091L868.861 36.1645V36.1645Z" fill="#F34F29"/>
<g clip-path="url(#clip1_34_2)">
<path fill-rule="evenodd" clip-rule="evenodd" d="M385.289 163.067C367.196 163.067 352.523 176.509 352.523 193.092C352.523 206.358 361.911 217.613 374.931 221.583C376.568 221.861 377.169 220.932 377.169 220.138C377.169 219.423 377.139 217.057 377.125 214.549C368.009 216.365 366.086 211.006 366.086 211.006C364.595 207.535 362.447 206.612 362.447 206.612C359.475 204.749 362.671 204.787 362.671 204.787C365.962 204.999 367.694 207.882 367.694 207.882C370.616 212.472 375.36 211.144 377.229 210.377C377.524 208.437 378.372 207.111 379.31 206.362C372.032 205.603 364.381 203.028 364.381 191.523C364.381 188.245 365.661 185.567 367.758 183.463C367.417 182.707 366.296 179.652 368.075 175.517C368.075 175.517 370.826 174.711 377.086 178.596C379.7 177.931 382.503 177.597 385.288 177.585C388.072 177.597 390.877 177.931 393.496 178.596C399.749 174.712 402.497 175.518 402.497 175.518C404.281 179.653 403.159 182.707 402.819 183.464C404.92 185.566 406.191 188.245 406.191 191.524C406.191 203.055 398.525 205.595 391.229 206.337C392.404 207.269 393.452 209.096 393.452 211.898C393.452 215.915 393.415 219.148 393.415 220.137C393.415 220.934 394.005 221.872 395.665 221.577C408.677 217.602 418.053 206.351 418.053 193.09C418.055 176.51 403.385 163.067 385.289 163.067Z" fill="#181616"/>
<path d="M364.934 206.176C364.861 206.326 364.605 206.37 364.372 206.268C364.133 206.169 364.001 205.967 364.078 205.816C364.147 205.664 364.404 205.621 364.642 205.723C364.881 205.822 365.017 206.026 364.935 206.176H364.934ZM366.261 207.534C366.105 207.666 365.799 207.605 365.591 207.394C365.377 207.185 365.337 206.904 365.496 206.77C365.656 206.638 365.952 206.7 366.166 206.909C366.381 207.121 366.424 207.398 366.26 207.533L366.261 207.534ZM367.553 209.262C367.352 209.39 367.024 209.27 366.821 209.003C366.619 208.737 366.619 208.417 366.825 208.288C367.028 208.159 367.352 208.275 367.557 208.54C367.758 208.811 367.758 209.132 367.553 209.262V209.262ZM369.322 210.933C369.143 211.114 368.76 211.065 368.481 210.818C368.194 210.576 368.115 210.232 368.294 210.051C368.477 209.869 368.861 209.92 369.143 210.166C369.428 210.407 369.514 210.751 369.322 210.932V210.933ZM371.765 211.902C371.685 212.138 371.317 212.245 370.946 212.145C370.575 212.042 370.333 211.767 370.407 211.53C370.484 211.293 370.855 211.182 371.229 211.288C371.598 211.39 371.841 211.662 371.765 211.902H371.765ZM374.445 212.082C374.455 212.329 374.14 212.535 373.751 212.54C373.36 212.548 373.042 212.348 373.038 212.104C373.038 211.854 373.346 211.65 373.737 211.645C374.127 211.638 374.445 211.837 374.445 212.082ZM376.941 211.694C376.987 211.935 376.717 212.183 376.33 212.249C375.95 212.314 375.598 212.164 375.549 211.924C375.503 211.677 375.778 211.43 376.157 211.365C376.545 211.303 376.891 211.449 376.941 211.694V211.694Z" fill="#181616"/>
<path d="M355.142 238.432H346.901C346.799 238.432 346.701 238.47 346.629 238.536C346.557 238.602 346.516 238.692 346.516 238.785V242.478C346.516 242.571 346.557 242.661 346.629 242.727C346.701 242.793 346.799 242.831 346.901 242.831H350.115V247.418C350.115 247.418 349.394 247.644 347.397 247.644C345.043 247.644 341.754 246.856 341.754 240.228C341.754 233.599 345.179 232.726 348.395 232.726C351.179 232.726 352.377 233.175 353.141 233.391C353.38 233.458 353.603 233.239 353.603 233.044L354.522 229.477C354.523 229.423 354.511 229.37 354.485 229.322C354.459 229.274 354.421 229.233 354.374 229.201C354.064 228.998 352.174 228.03 347.398 228.03C341.896 228.03 336.253 230.174 336.253 240.486C336.253 250.797 342.714 252.333 348.159 252.333C352.667 252.333 355.402 250.567 355.402 250.567C355.515 250.511 355.527 250.366 355.527 250.299V238.785C355.527 238.691 355.486 238.601 355.414 238.535C355.342 238.469 355.244 238.432 355.142 238.432V238.432ZM397.231 228.911H392.59C392.539 228.911 392.489 228.92 392.443 228.938C392.396 228.956 392.353 228.982 392.318 229.015C392.282 229.048 392.254 229.087 392.235 229.13C392.216 229.173 392.206 229.219 392.206 229.266L392.208 237.483H384.975V229.266C384.975 229.219 384.965 229.173 384.946 229.13C384.927 229.088 384.899 229.048 384.864 229.015C384.828 228.983 384.786 228.956 384.739 228.938C384.693 228.92 384.643 228.911 384.592 228.911H379.952C379.901 228.911 379.851 228.92 379.805 228.938C379.758 228.956 379.715 228.982 379.68 229.015C379.644 229.048 379.616 229.087 379.597 229.13C379.578 229.173 379.568 229.219 379.568 229.266V251.517C379.568 251.713 379.741 251.872 379.952 251.872H384.592C384.643 251.872 384.693 251.863 384.739 251.845C384.786 251.827 384.828 251.8 384.864 251.767C384.9 251.734 384.928 251.695 384.947 251.652C384.966 251.609 384.975 251.563 384.975 251.517V241.999H392.208L392.196 251.517C392.196 251.713 392.368 251.872 392.581 251.872H397.231C397.281 251.872 397.332 251.863 397.378 251.845C397.425 251.827 397.467 251.8 397.503 251.767C397.538 251.734 397.566 251.695 397.585 251.652C397.604 251.609 397.614 251.563 397.614 251.517V229.265C397.614 229.069 397.444 228.911 397.231 228.911V228.911ZM360.906 229.417C359.255 229.417 357.915 230.654 357.915 232.185C357.915 233.715 359.255 234.955 360.906 234.955C362.559 234.955 363.898 233.715 363.898 232.185C363.898 230.654 362.558 229.417 360.906 229.417ZM363.183 236.197H358.557C358.345 236.197 358.155 236.398 358.155 236.593V251.309C358.155 251.741 358.45 251.87 358.83 251.87H362.997C363.455 251.87 363.566 251.663 363.566 251.301V246.823V236.552C363.567 236.506 363.557 236.46 363.538 236.417C363.519 236.374 363.49 236.335 363.455 236.302C363.419 236.269 363.377 236.243 363.33 236.225C363.284 236.208 363.233 236.198 363.183 236.198V236.197ZM415.249 236.231H410.644C410.593 236.231 410.543 236.24 410.497 236.258C410.45 236.277 410.408 236.303 410.372 236.336C410.337 236.369 410.309 236.408 410.29 236.451C410.271 236.494 410.261 236.54 410.262 236.586V247.497C410.262 247.497 409.091 248.28 407.431 248.28C405.772 248.28 405.331 247.591 405.331 246.101V236.586C405.332 236.54 405.322 236.494 405.303 236.451C405.284 236.408 405.256 236.369 405.22 236.336C405.185 236.303 405.142 236.276 405.096 236.258C405.049 236.24 404.999 236.231 404.948 236.231H400.275C400.173 236.231 400.075 236.269 400.003 236.336C399.931 236.402 399.891 236.492 399.892 236.586V246.821C399.892 251.246 402.583 252.328 406.285 252.328C409.323 252.328 411.772 250.79 411.772 250.79C411.772 250.79 411.887 251.601 411.941 251.697C411.995 251.793 412.132 251.889 412.28 251.889L415.253 251.877C415.304 251.877 415.354 251.868 415.401 251.85C415.448 251.832 415.49 251.806 415.526 251.773C415.562 251.74 415.59 251.7 415.609 251.657C415.628 251.614 415.638 251.568 415.638 251.522L415.636 236.584C415.635 236.49 415.595 236.401 415.523 236.334C415.45 236.268 415.353 236.231 415.251 236.23L415.249 236.231ZM427.835 235.731C425.219 235.731 423.44 236.8 423.44 236.8V229.265C423.441 229.219 423.431 229.173 423.412 229.13C423.393 229.087 423.365 229.048 423.329 229.015C423.294 228.982 423.251 228.956 423.205 228.938C423.158 228.92 423.108 228.91 423.058 228.91H418.405C418.354 228.91 418.304 228.919 418.257 228.937C418.21 228.955 418.168 228.981 418.132 229.014C418.096 229.047 418.068 229.086 418.049 229.129C418.029 229.172 418.02 229.218 418.02 229.265V251.517C418.02 251.563 418.029 251.609 418.049 251.652C418.068 251.695 418.096 251.735 418.132 251.768C418.168 251.801 418.21 251.827 418.257 251.845C418.304 251.862 418.354 251.872 418.405 251.872H421.634C421.78 251.872 421.889 251.803 421.97 251.683C422.049 251.563 422.166 250.656 422.166 250.656C422.166 250.656 424.068 252.308 427.671 252.308C431.899 252.308 434.325 250.343 434.325 243.485C434.325 236.626 430.451 235.73 427.834 235.73L427.835 235.731ZM426.017 248.268C424.421 248.223 423.337 247.559 423.337 247.559V240.512C423.337 240.512 424.406 239.912 425.717 239.804C427.375 239.667 428.973 240.127 428.973 243.752C428.973 247.574 428.253 248.329 426.018 248.267L426.017 248.268ZM376.968 248.184C376.765 248.184 376.246 248.26 375.712 248.26C374.003 248.26 373.423 247.531 373.423 246.589V240.332H376.904C376.955 240.332 377.005 240.322 377.052 240.304C377.099 240.286 377.141 240.26 377.177 240.227C377.213 240.194 377.241 240.155 377.26 240.112C377.28 240.069 377.289 240.022 377.289 239.976V236.549C377.289 236.502 377.279 236.456 377.26 236.413C377.241 236.37 377.212 236.331 377.177 236.298C377.141 236.265 377.098 236.239 377.051 236.222C377.005 236.204 376.954 236.195 376.904 236.195H373.423L373.417 231.981C373.417 231.821 373.328 231.741 373.126 231.741H368.382C368.199 231.741 368.099 231.816 368.099 231.978V236.332C368.099 236.332 365.722 236.858 365.562 236.9C365.482 236.922 365.412 236.966 365.362 237.027C365.312 237.088 365.285 237.163 365.285 237.239V239.975C365.284 240.021 365.294 240.067 365.313 240.11C365.332 240.153 365.36 240.192 365.396 240.225C365.431 240.258 365.474 240.284 365.52 240.302C365.567 240.32 365.617 240.33 365.667 240.33H368.099V246.913C368.099 251.804 371.842 252.284 374.368 252.284C375.521 252.284 376.902 251.945 377.13 251.867C377.269 251.82 377.348 251.69 377.348 251.548L377.351 248.538C377.35 248.445 377.309 248.355 377.237 248.289C377.165 248.223 377.068 248.185 376.966 248.184L376.968 248.184Z" fill="#100E0F"/>
</g>
<path d="M708.833 95.925C712.449 95.925 715.385 90.5099 715.385 83.8392V71.7534H708.833C705.217 71.7534 702.281 77.1685 702.281 83.8392C702.281 90.5099 705.217 95.925 708.833 95.925Z" fill="#0ACF83"/>
<path d="M702.274 59.6548C702.274 52.9842 705.21 47.569 708.826 47.569H715.378V71.7533H708.826C705.21 71.7533 702.274 66.3382 702.274 59.6675V59.6548Z" fill="#A259FF"/>
<path d="M702.274 35.4704C702.274 28.7998 705.21 23.3846 708.826 23.3846H715.378V47.569H708.826C705.21 47.569 702.274 42.1538 702.274 35.4831V35.4704Z" fill="#F24E1E"/>
<path d="M715.323 23.3846H721.875C725.491 23.3846 728.427 28.7998 728.427 35.4704C728.427 42.1411 725.491 47.5563 721.875 47.5563H715.323V23.3846Z" fill="#FF7262"/>
<path d="M728.495 59.6548C728.495 66.3255 725.56 71.7407 721.943 71.7407C718.327 71.7407 715.323 66.3255 715.323 59.6548C715.323 52.9842 718.258 47.569 721.875 47.569C725.491 47.569 728.427 52.9842 728.427 59.6548H728.495Z" fill="#1ABCFE"/>
<path d="M735.659 43.422V68.7604H737.426V56.6619H741.675V53.5168H737.426V46.5925H742.947V43.422H735.659ZM746.143 48.5708C746.783 48.5708 747.298 47.6197 747.298 46.4403C747.298 45.2609 746.776 44.4366 746.143 44.4366C745.511 44.4366 744.988 45.3877 744.988 46.5671C744.988 47.1378 745.112 47.6704 745.332 48.0889C745.552 48.5074 745.841 48.723 746.157 48.723L746.143 48.5708ZM745.25 51.7667V68.7604H746.948V51.7667H745.195H745.25ZM753.582 51.2594C751.231 51.2594 749.595 55.064 749.595 59.2744C749.595 63.4848 751.245 67.264 753.582 67.264C754.069 67.2797 754.551 67.1085 755 66.7614C755.449 66.4142 755.853 65.8987 756.188 65.2475V67.5049C756.183 68.8612 755.898 70.1629 755.39 71.1446C755.134 71.627 754.828 72.0101 754.49 72.2714C754.153 72.5327 753.79 72.667 753.424 72.6664C752.862 72.6337 752.317 72.2987 751.857 71.7026L750.963 74.5307C751.649 75.3449 752.442 75.8027 753.257 75.8557C754.073 75.9087 754.881 75.555 755.597 74.8319C756.313 74.1088 756.909 73.0431 757.324 71.7469C757.739 70.4508 757.957 68.9722 757.955 67.4669V51.7413H756.188V53.2631C755.853 52.612 755.449 52.0965 755 51.7493C754.551 51.4022 754.069 51.231 753.582 51.2467V51.2594ZM751.368 59.2744C751.328 58.4499 751.414 57.621 751.615 56.8815C751.817 56.142 752.127 55.5212 752.51 55.0893C753.293 54.2016 754.277 54.2016 755.053 55.0893C755.83 55.9771 756.27 57.6004 756.195 59.2744C756.235 60.0989 756.149 60.9277 755.948 61.6672C755.746 62.4068 755.436 63.0275 755.053 63.4594C754.27 64.3471 753.287 64.3471 752.51 63.4594C751.733 62.5717 751.293 60.9484 751.368 59.2744Z" fill="black"/>
<path d="M764.328 54.5821C763.82 54.5854 763.333 54.9593 762.974 55.6221C762.614 56.2849 762.412 57.1829 762.41 58.1203V68.8746H760.643V51.8808H762.41V53.3139C762.946 51.995 763.798 51.234 764.692 51.2594C765.82 51.2087 766.872 52.3247 767.428 54.1382C768.116 52.3627 769.106 51.2848 770.178 51.2594C772.193 51.2594 773.444 54.2523 773.451 57.9555V68.7731H771.684V57.9935C771.736 57.322 771.682 56.6372 771.53 56.0201C771.377 55.403 771.132 54.8794 770.823 54.5112C770.514 54.143 770.155 53.9457 769.787 53.9425C769.42 53.9393 769.059 54.1305 768.748 54.4933C768.44 54.8648 768.195 55.3922 768.044 56.0127C767.893 56.6332 767.841 57.3207 767.896 57.9935V68.7477H766.198V58.0062C766.196 57.0688 765.993 56.1708 765.634 55.508C765.275 54.8451 764.788 54.4713 764.28 54.4679L764.328 54.5821ZM782.89 53.6943C782.488 52.9202 782.004 52.306 781.469 51.8895C780.933 51.4729 780.357 51.2628 779.776 51.2721C777.143 51.2721 775.307 55.381 775.307 60.1494C775.307 64.9178 777.163 69.0267 779.776 69.0267C780.357 69.036 780.933 68.8259 781.469 68.4094C782.004 67.9928 782.488 67.3786 782.89 66.6045V68.5322H784.657V51.5384H782.89V53.6943ZM777.047 60.2889C776.957 58.2598 777.493 56.3068 778.435 55.2415C779.377 54.1762 780.498 54.1762 781.502 55.2415C781.961 55.7679 782.334 56.5168 782.579 57.4068C782.824 58.2968 782.931 59.2937 782.89 60.2889C782.98 62.318 782.443 64.271 781.502 65.3363C780.56 66.4016 779.439 66.4016 778.435 65.3363C777.976 64.81 777.603 64.061 777.358 63.171C777.113 62.281 777.005 61.2841 777.047 60.2889Z" fill="black"/>
<path d="M735.5 150.912L698.435 164.65L704.088 215.59L735.5 233.674L766.912 215.59L772.565 164.65L735.5 150.912Z" fill="#DD0031"/>
<path d="M735.5 150.912V160.098V160.057V201.976V233.674L766.912 215.59L772.565 164.65L735.5 150.912Z" fill="#C3002F"/>
<path d="M735.5 160.057L712.329 214.059H720.968L725.627 201.976H745.294L749.952 214.059H758.591L735.5 160.057ZM742.268 194.527H728.732L735.5 177.602L742.268 194.527Z" fill="white"/>
<defs>
<clipPath id="clip0_34_2">
<rect width="94.0432" height="74.9116" fill="white" transform="translate(341 24)"/>
</clipPath>
<clipPath id="clip1_34_2">
<rect width="98.5781" height="90.3339" fill="white" transform="translate(336 162)"/>
</clipPath>
</defs>
</svg>
