<svg width="1152" height="382" viewBox="0 0 1152 382" fill="none" xmlns="http://www.w3.org/2000/svg">
<path d="M30.2477 107.895L18.7319 7.93315H145.268L133.737 107.879L81.9231 118.997L30.2477 107.895Z" fill="#E44F26"/>
<path d="M82 110.501L123.871 101.517L133.721 16.1083H82V110.501Z" fill="#F1662A"/>
<path d="M82 53.1799H61.0387L59.5935 40.6257H82V28.365H81.9436H42.2812L42.6605 31.6572L46.5504 65.4405H82V53.1799Z" fill="#EBEBEB"/>
<path d="M82 85.0196L81.9283 85.0354L64.288 81.3505L63.1605 71.5729H54.5864H47.2576L49.4768 90.8187L81.9283 97.7919L82 97.7761V85.0196Z" fill="#EBEBEB"/>
<path d="M81.9436 53.1799V65.4405H101.449L99.6146 81.3425L81.9436 85.0314V97.7879L114.421 90.8187L114.657 88.7481L118.377 56.4721L118.767 53.1799H114.498H81.9436Z" fill="white"/>
<path d="M81.9436 28.365V35.9808V40.5979V40.6257H120.156H120.207L120.525 37.8729L121.247 31.6572L121.627 28.365H81.9436Z" fill="white"/>
<path d="M219.617 101.79L207.966 14.2041H336.035L324.368 101.776L271.922 111.517L219.617 101.79Z" fill="#1572B6"/>
<path d="M272 104.073L314.382 96.201L324.352 21.3671H272V104.073Z" fill="#33A9DC"/>
<path d="M272 53.0982H293.217L294.68 42.0983H272V31.3556H272.057H312.203L311.819 34.2368L307.882 63.8409H272V53.0982Z" fill="white"/>
<path d="M272.099 80.9958L272.026 81.0097L254.171 77.7775L253.029 69.2104H244.351H236.932L239.179 86.0769L272.021 92.1868L272.099 92.1729V80.9958Z" fill="#EBEBEB"/>
<path d="M291.853 63.3856L289.923 77.7706L272.042 81.0027V92.1799L304.91 86.0769L305.153 84.2627L307.939 63.3856H291.853Z" fill="white"/>
<path d="M272.057 31.3556V38.0285V42.0705V42.0983H233.379H233.327L233.006 39.6828L232.274 34.2368L231.89 31.3556H272.057Z" fill="#EBEBEB"/>
<path d="M272 53.0982V59.7711V63.813V63.8408H254.42H254.368L254.046 61.4254L253.32 55.9793L252.936 53.0982H272Z" fill="#EBEBEB"/>
<g clip-path="url(#clip0_18_3)">
<path d="M543.953 14.5063H383.047C383.021 14.5063 383 14.5211 383 14.5393V126.897C383 126.916 383.021 126.93 383.047 126.93H543.953C543.979 126.93 544 126.916 544 126.897V14.5393C544 14.5211 543.979 14.5063 543.953 14.5063Z" fill="#F7DF1E"/>
<path d="M484.883 95.7503C488.027 99.4831 492.43 102.118 499.662 102.118C505.951 102.118 510.039 99.9223 510.039 96.8482C510.039 93.3349 505.951 92.0174 499.033 89.8217L495.26 88.7238C484.254 85.4301 477.021 81.4777 477.021 72.9141C477.021 65.0093 485.512 58.8611 499.033 58.8611C508.781 58.8611 515.699 61.2765 520.416 67.4247L508.781 72.6946C506.266 69.4009 503.436 68.0834 499.033 68.0834C494.631 68.0834 491.801 70.0596 491.801 72.6946C491.801 75.7687 494.631 77.0861 501.234 79.0623L505.008 80.1602C517.9 84.1126 525.133 87.8455 525.133 96.8482C525.133 106.29 514.441 111.56 499.977 111.56C485.826 111.56 476.707 106.949 472.305 100.801L484.883 95.7503ZM431.426 96.6286C433.941 99.4831 435.828 102.118 441.174 102.118C446.205 102.118 449.35 100.801 449.35 95.5307V59.0807H464.443V95.0915C464.443 106.07 455.324 110.901 441.803 110.901C429.539 110.901 422.621 106.51 419.162 101.24L431.426 96.6286Z" fill="black"/>
</g>
<path d="M696 68.7993C702.741 68.7993 708.206 63.8445 708.206 57.7325C708.206 51.6206 702.741 46.6658 696 46.6658C689.259 46.6658 683.794 51.6206 683.794 57.7325C683.794 63.8445 689.259 68.7993 696 68.7993Z" fill="#61DAFB"/>
<path d="M696 98.4296C705.581 106.878 715.031 111.876 722.644 111.876C725.138 111.876 727.5 111.4 729.469 110.329C736.294 106.759 738.788 97.8346 736.425 85.1019C736.031 82.841 735.506 80.58 734.85 78.2001C737.475 77.4861 739.837 76.7721 742.2 76.0581C755.456 71.4172 762.806 64.9914 762.806 57.9705C762.806 50.8307 755.456 44.4049 742.2 39.883C739.837 39.05 737.475 38.336 734.85 37.741C735.506 35.3611 736.031 33.1001 736.425 30.8392C738.656 17.8685 736.163 8.82469 729.338 5.25477C727.369 4.1838 725.006 3.70781 722.512 3.70781C715.031 3.70781 705.45 8.70569 695.869 17.1545C686.419 8.70569 676.969 3.70781 669.356 3.70781C666.862 3.70781 664.5 4.1838 662.531 5.25477C655.706 8.82469 653.212 17.7495 655.575 30.4822C655.969 32.7431 656.494 35.0041 657.15 37.384C654.525 38.098 652.162 38.812 649.8 39.526C636.544 44.1669 629.194 50.5927 629.194 57.6136C629.194 64.7534 636.544 71.1792 649.8 75.7011C652.162 76.5341 654.525 77.2481 657.15 77.8431C656.494 80.223 655.969 82.484 655.575 84.7449C653.344 97.4776 655.837 106.521 662.531 109.972C664.5 111.043 666.862 111.519 669.356 111.519C676.969 111.757 686.419 106.759 696 98.4296V98.4296ZM688.65 82.365C691.013 82.484 693.506 82.484 696 82.484C698.494 82.484 700.987 82.484 703.35 82.365C700.987 85.2209 698.494 87.8389 696 90.3378C693.506 87.8389 691.013 85.2209 688.65 82.365V82.365ZM672.375 70.1083C673.688 72.1312 674.869 74.0352 676.313 75.9391C672.244 75.4631 668.437 74.8682 664.762 74.1542C665.944 70.9412 667.256 67.6093 668.831 64.2774C669.881 66.1814 671.063 68.2043 672.375 70.1083V70.1083ZM664.762 41.4299C668.437 40.7159 672.244 40.121 676.313 39.645C675 41.5489 673.688 43.4529 672.375 45.4758C671.063 47.4988 669.881 49.4027 668.831 51.4257C667.125 47.9748 665.812 44.6429 664.762 41.4299V41.4299ZM671.981 57.7326C673.687 54.5196 675.525 51.3067 677.625 48.0938C679.594 44.9999 681.825 41.9059 684.056 38.812C687.994 38.574 691.931 38.455 696 38.455C700.2 38.455 704.137 38.574 707.944 38.812C710.306 41.9059 712.406 44.9999 714.375 48.0938C716.475 51.3067 718.313 54.5196 720.019 57.7326C718.313 60.9455 716.475 64.1584 714.375 67.3713C712.406 70.4653 710.175 73.5592 707.944 76.6531C704.006 76.8911 700.069 77.0101 696 77.0101C691.8 77.0101 687.863 76.8911 684.056 76.6531C681.694 73.5592 679.594 70.4653 677.625 67.3713C675.525 64.1584 673.687 60.9455 671.981 57.7326V57.7326ZM723.3 51.3067L719.756 45.3568C718.444 43.3339 717.262 41.4299 715.819 39.526C719.887 40.002 723.694 40.597 727.369 41.3109C726.188 44.6429 724.875 47.9748 723.3 51.3067ZM723.3 64.1584C724.875 67.4903 726.188 70.8222 727.369 74.0352C723.694 74.7492 719.887 75.3441 715.819 75.8201C717.131 73.9162 718.444 72.0122 719.756 69.9893C720.937 68.2043 722.119 66.1814 723.3 64.1584ZM726.319 105.45C725.269 106.045 723.956 106.283 722.512 106.283C716.081 106.283 708.075 101.524 700.2 94.3837C704.006 90.6948 707.681 86.5299 711.356 81.889C717.525 81.413 723.431 80.58 728.944 79.39C729.6 81.532 729.994 83.6739 730.387 85.8159C732.225 95.9307 730.781 103.189 726.319 105.45V105.45ZM733.144 42.7389C747.844 46.5468 756.637 52.3777 756.637 57.7326C756.637 62.3734 750.6 67.0143 739.969 70.7033C737.869 71.4172 735.506 72.1312 733.144 72.7262C731.438 67.8473 729.338 62.8494 726.713 57.7326C729.338 52.6157 731.569 47.6178 733.144 42.7389ZM722.644 9.18168C724.088 9.18168 725.269 9.41968 726.45 10.0147C730.781 12.2756 732.356 19.4154 730.519 29.6492C730.125 31.6722 729.6 33.8141 729.075 36.0751C723.562 35.0041 717.656 34.1711 711.488 33.5761C707.944 28.9352 704.138 24.7703 700.331 21.0814C708.206 14.0606 716.213 9.18168 722.644 9.18168V9.18168ZM703.35 33.1001C700.987 32.9811 698.494 32.9811 696 32.9811C693.506 32.9811 691.013 32.9811 688.65 33.1001C691.013 30.2442 693.506 27.6263 696 25.1273C698.494 27.6263 700.987 30.3632 703.35 33.1001ZM665.681 10.0147C666.731 9.41968 668.044 9.18168 669.487 9.18168C675.919 9.18168 683.925 13.9416 691.8 21.0814C687.994 24.7703 684.319 28.9352 680.644 33.5761C674.475 34.0521 668.569 34.8851 663.056 36.0751C662.4 33.9331 662.006 31.7912 661.612 29.6492C659.775 19.5344 661.219 12.3946 665.681 10.0147V10.0147ZM658.856 72.7262C644.156 68.9183 635.362 63.0874 635.362 57.7326C635.362 53.0917 641.4 48.4508 652.031 44.7619C654.131 44.0479 656.494 43.3339 658.856 42.7389C660.562 47.6178 662.662 52.6157 665.287 57.7326C662.662 62.8494 660.431 67.9663 658.856 72.7262ZM661.612 85.8159C662.006 83.7929 662.531 81.651 663.056 79.39C668.569 80.461 674.475 81.294 680.644 81.889C684.187 86.5299 687.994 90.6948 691.8 94.3837C683.925 101.405 675.919 106.283 669.487 106.283C668.044 106.283 666.862 106.045 665.681 105.45C661.219 103.189 659.775 95.9307 661.612 85.8159V85.8159ZM656.1 134.843C658.987 131.63 659.119 128.06 657.544 124.49C655.969 120.92 652.687 119.254 648.619 119.135C643.762 119.016 638.775 119.135 633.919 119.135H633V149.955H636.937V138.294H643.106C643.894 138.294 644.55 138.532 644.944 139.127L652.819 150.193C652.95 150.431 653.344 150.788 653.606 150.788H658.725C655.575 146.385 652.556 142.221 649.406 137.937C652.162 137.58 654.525 136.747 656.1 134.843V134.843ZM636.937 134.605V122.824H638.381C641.4 122.824 644.55 122.705 647.569 122.943C651.112 123.062 653.606 125.561 653.606 128.774C653.606 131.987 650.719 134.486 647.175 134.605C644.025 134.724 640.875 134.605 636.937 134.605V134.605ZM687.731 136.152C685.631 127.822 677.231 125.68 670.8 128.298C665.812 130.321 663.581 134.248 663.45 139.127C663.319 142.816 664.5 146.147 667.65 148.646C671.194 151.502 675.525 151.859 679.987 151.145C682.481 150.669 684.712 149.598 686.419 147.932C685.762 147.099 685.106 146.266 684.45 145.553C680.775 148.408 676.706 149.36 672.244 147.456C669.356 146.147 667.912 142.935 667.65 140.555H687.994V139.008C688.125 137.937 687.994 136.985 687.731 136.152V136.152ZM667.912 138.056C667.519 134.486 671.456 130.678 675.787 130.678C680.775 130.559 683.925 133.296 684.056 138.056H667.912V138.056ZM708.206 127.703C706.238 127.346 704.137 127.227 702.169 127.346C699.019 127.584 696.263 128.893 694.031 131.035C694.688 131.868 695.213 132.701 696 133.653C696.263 133.415 696.525 133.177 696.787 133.058C698.887 131.273 701.381 130.321 704.4 130.559C706.763 130.678 708.994 131.392 709.65 133.534C710.175 135.2 710.044 136.985 710.175 138.77C709.781 138.77 709.65 138.651 709.519 138.532C706.369 136.152 702.825 135.676 699.019 136.509C695.475 137.342 693.244 139.841 692.981 143.054C692.719 146.742 694.556 149.479 698.1 150.788C700.331 151.621 702.825 151.621 705.188 151.145C707.025 150.788 707.813 149.836 710.438 148.527V150.074H714.113C714.113 145.315 714.244 139.484 714.113 134.01C714.113 130.559 711.881 128.417 708.206 127.703ZM710.044 142.697C709.912 143.054 710.044 143.411 710.044 143.768C710.044 146.266 709.387 147.099 706.762 148.051C704.925 148.646 702.956 148.884 700.988 148.289C698.756 147.694 697.181 145.91 697.181 143.887C697.05 141.864 698.494 139.841 700.725 139.246C703.744 138.294 706.5 138.889 708.994 140.555C709.781 141.15 710.306 141.745 710.044 142.697V142.697ZM730.519 130.916C733.931 129.964 737.081 130.559 739.444 133.177L739.838 133.415C740.756 132.701 741.544 131.987 742.594 131.154C742.2 130.797 742.069 130.559 741.806 130.202C738 126.513 730.519 126.037 725.925 129.012C719.494 133.296 719.625 141.626 722.775 146.028C725.794 150.193 730.125 151.621 735.244 151.026C738.263 150.669 740.756 149.36 742.725 147.099C741.806 146.385 740.888 145.672 739.969 144.839C739.706 145.077 739.575 145.196 739.444 145.434C735.9 149.003 729.994 148.646 726.844 144.839C725.006 142.578 724.612 139.96 725.137 137.342C725.4 134.367 727.106 131.987 730.519 130.916ZM757.819 147.099C757.556 147.218 757.425 147.337 757.425 147.337C756.375 148.051 755.325 148.17 754.144 147.813C752.963 147.337 752.831 146.385 752.7 145.434V131.868C752.7 131.63 752.7 132.106 752.831 130.916H757.819V127.346H752.569V121.396H748.631V127.822H745.219C744.956 127.822 744.563 128.06 744.563 128.298C744.431 129.131 744.563 129.726 744.563 130.916H748.762V146.147C748.762 148.051 749.288 149.717 751.125 150.669C753.094 151.74 756.9 151.502 758.606 150.193C758.869 150.074 759 149.598 759 149.479C758.606 148.765 758.212 147.932 757.819 147.099V147.099Z" fill="#61DAFB"/>
<path d="M920.688 61.6776C916.282 60.3636 912.392 58.0009 909.466 54.8606C906.241 51.3617 902.135 48.548 897.461 46.6346C892.787 44.7212 887.669 43.7589 882.5 43.8212C875.546 43.3948 868.662 45.252 863.218 49.023C857.775 52.794 854.171 58.2021 853.125 64.1704C855.185 61.1854 858.286 58.8433 861.981 57.4812C865.676 56.1191 869.775 55.8071 873.688 56.5903C878.086 57.9425 881.969 60.3189 884.909 63.4581C888.152 66.9291 892.266 69.7137 896.939 71.6003C901.612 73.4868 906.72 74.4255 911.875 74.3449C918.829 74.7714 925.713 72.9142 931.157 69.1431C936.6 65.3721 940.204 59.964 941.25 53.9958C939.227 57.0165 936.136 59.3939 932.434 60.7771C928.731 62.1604 924.613 62.476 920.688 61.6776ZM844.312 87.0123C848.718 88.3263 852.608 90.6889 855.534 93.8292C858.759 97.3281 862.865 100.142 867.539 102.055C872.213 103.969 877.331 104.931 882.5 104.869C889.454 105.295 896.338 103.438 901.782 99.6669C907.225 95.8959 910.829 90.4877 911.875 84.5195C909.815 87.5045 906.714 89.8466 903.019 91.2087C899.324 92.5708 895.225 92.8827 891.312 92.0996C886.914 90.7473 883.031 88.3709 880.091 85.2317C876.84 81.7694 872.724 78.9908 868.053 77.1051C863.382 75.2194 858.278 74.2756 853.125 74.3449C846.171 73.9185 839.287 75.7757 833.843 79.5467C828.4 83.3177 824.796 88.7259 823.75 94.6941C825.773 91.6734 828.864 89.2959 832.566 87.9127C836.269 86.5295 840.387 86.2138 844.312 87.0123Z" fill="black"/>
<path d="M1004.17 138.038H1009.05C1011.27 138.038 1012.88 138.351 1013.88 138.978C1014.89 139.606 1015.39 140.602 1015.39 141.97C1015.39 142.898 1015.17 143.659 1014.73 144.253C1014.29 144.848 1013.71 145.206 1012.98 145.327V145.433C1013.97 145.652 1014.69 146.063 1015.13 146.665C1015.57 147.267 1015.79 148.067 1015.79 149.066C1015.79 150.483 1015.27 151.588 1014.24 152.381C1013.2 153.175 1011.8 153.571 1010.03 153.571H1004.17V138.038V138.038ZM1007.49 144.19H1009.42C1010.32 144.19 1010.97 144.051 1011.38 143.776C1011.78 143.5 1011.98 143.043 1011.98 142.405C1011.98 141.811 1011.76 141.384 1011.32 141.125C1010.88 140.866 1010.19 140.737 1009.24 140.737H1007.49V144.19V144.19ZM1007.49 146.803V150.852H1009.66C1010.57 150.852 1011.25 150.678 1011.68 150.331C1012.12 149.984 1012.34 149.453 1012.34 148.737C1012.34 147.449 1011.41 146.803 1009.55 146.803H1007.49V146.803ZM1033.14 145.783C1033.14 148.354 1032.5 150.331 1031.21 151.712C1029.92 153.094 1028.08 153.785 1025.68 153.785C1023.28 153.785 1021.44 153.094 1020.15 151.712C1018.86 150.331 1018.22 148.348 1018.22 145.762C1018.22 143.177 1018.87 141.203 1020.16 139.839C1021.45 138.475 1023.29 137.794 1025.7 137.794C1028.11 137.794 1029.95 138.481 1031.23 139.854C1032.5 141.229 1033.14 143.206 1033.14 145.783V145.783ZM1021.7 145.783C1021.7 147.519 1022.04 148.826 1022.7 149.704C1023.37 150.582 1024.36 151.021 1025.68 151.021C1028.33 151.021 1029.66 149.275 1029.66 145.783C1029.66 142.284 1028.34 140.535 1025.7 140.535C1024.38 140.535 1023.38 140.975 1022.71 141.858C1022.04 142.741 1021.7 144.048 1021.7 145.783V145.783ZM1050.61 145.783C1050.61 148.354 1049.97 150.331 1048.68 151.712C1047.4 153.094 1045.55 153.785 1043.15 153.785C1040.75 153.785 1038.91 153.094 1037.62 151.712C1036.33 150.331 1035.69 148.348 1035.69 145.762C1035.69 143.177 1036.34 141.203 1037.63 139.839C1038.92 138.475 1040.77 137.794 1043.17 137.794C1045.58 137.794 1047.42 138.481 1048.7 139.854C1049.97 141.229 1050.61 143.206 1050.61 145.783ZM1039.17 145.783C1039.17 147.519 1039.51 148.826 1040.17 149.704C1040.84 150.582 1041.83 151.021 1043.15 151.021C1045.8 151.021 1047.13 149.275 1047.13 145.783C1047.13 142.284 1045.81 140.535 1043.17 140.535C1041.85 140.535 1040.85 140.975 1040.18 141.858C1039.51 142.741 1039.17 144.048 1039.17 145.783ZM1059.9 153.571H1056.58V140.779H1052.32V138.038H1064.16V140.779H1059.9V153.571ZM1075.82 149.258C1075.82 150.661 1075.31 151.766 1074.29 152.573C1073.27 153.38 1071.86 153.785 1070.04 153.785C1068.37 153.785 1066.89 153.472 1065.6 152.85V149.79C1066.66 150.257 1067.56 150.587 1068.29 150.778C1069.02 150.97 1069.69 151.065 1070.3 151.065C1071.03 151.065 1071.59 150.927 1071.98 150.652C1072.37 150.375 1072.56 149.965 1072.56 149.419C1072.56 149.115 1072.48 148.844 1072.3 148.606C1072.13 148.369 1071.88 148.14 1071.55 147.921C1071.22 147.701 1070.54 147.35 1069.52 146.869C1068.56 146.423 1067.84 145.995 1067.36 145.584C1066.88 145.172 1066.5 144.695 1066.22 144.15C1065.93 143.604 1065.79 142.966 1065.79 142.238C1065.79 140.864 1066.26 139.783 1067.2 138.997C1068.14 138.211 1069.44 137.818 1071.09 137.818C1071.91 137.818 1072.69 137.913 1073.42 138.105C1074.16 138.297 1074.94 138.565 1075.74 138.912L1074.67 141.473C1073.84 141.133 1073.15 140.895 1072.6 140.76C1072.05 140.626 1071.51 140.558 1070.99 140.558C1070.36 140.558 1069.87 140.703 1069.54 140.994C1069.2 141.284 1069.03 141.663 1069.03 142.131C1069.03 142.422 1069.1 142.675 1069.24 142.891C1069.37 143.107 1069.59 143.316 1069.89 143.518C1070.18 143.72 1070.89 144.083 1071.99 144.608C1073.46 145.302 1074.46 145.998 1075 146.695C1075.55 147.392 1075.82 148.245 1075.82 149.258V149.258ZM1084.7 153.571H1081.38V140.779H1077.13V138.038H1088.96V140.779H1084.7V153.571ZM1094.69 147.611V153.571H1091.37V138.038H1095.94C1098.07 138.038 1099.64 138.422 1100.66 139.19C1101.68 139.959 1102.2 141.126 1102.2 142.691C1102.2 143.605 1101.94 144.417 1101.43 145.129C1100.93 145.841 1100.21 146.399 1099.28 146.802C1101.64 150.294 1103.17 152.55 1103.89 153.57H1100.2L1096.46 147.609H1094.69V147.611ZM1094.69 144.933H1095.77C1096.82 144.933 1097.59 144.76 1098.09 144.413C1098.59 144.065 1098.84 143.519 1098.84 142.776C1098.84 142.039 1098.59 141.515 1098.07 141.203C1097.56 140.892 1096.77 140.736 1095.7 140.736H1094.69V144.933V144.933ZM1115.45 153.571L1114.32 149.873H1108.6L1107.47 153.571H1103.89L1109.42 137.975H1113.48L1119.03 153.571H1115.45V153.571ZM1113.52 147.111C1112.47 143.761 1111.88 141.866 1111.75 141.427C1111.62 140.988 1111.52 140.641 1111.47 140.386C1111.23 141.292 1110.56 143.534 1109.44 147.111H1113.52ZM1131.83 142.883C1131.83 144.554 1131.3 145.833 1130.25 146.717C1129.2 147.604 1127.7 148.046 1125.75 148.046H1124.33V153.571H1121.01V138.038H1126.01C1127.91 138.038 1129.36 138.443 1130.35 139.254C1131.34 140.066 1131.83 141.275 1131.83 142.883V142.883ZM1124.33 145.348H1125.42C1126.44 145.348 1127.21 145.148 1127.72 144.747C1128.22 144.346 1128.48 143.764 1128.48 143C1128.48 142.228 1128.26 141.657 1127.84 141.289C1127.41 140.921 1126.75 140.736 1125.84 140.736H1124.33V145.348H1124.33ZM1079.66 73.1867C1077.34 72.4281 1073.99 72.305 1069.62 72.305H1053.94V95.5378H1070.84C1073.77 95.5378 1075.83 95.2485 1077.02 95.0302C1079.11 94.6607 1080.85 93.9498 1082.26 93.0832C1083.66 92.219 1084.82 90.9121 1085.72 89.258C1086.62 87.6038 1087.08 85.672 1087.08 83.5067C1087.08 80.9697 1086.42 78.8834 1085.11 77.0131C1083.8 75.1417 1081.99 73.9441 1079.66 73.1867ZM1077.25 63.1826C1079.56 62.5019 1081.3 61.2706 1082.47 59.6942C1083.64 58.1179 1084.22 56.0897 1084.22 53.7071C1084.22 51.4501 1083.68 49.4381 1082.59 47.72C1081.49 46.0031 1079.93 44.838 1077.91 44.2038C1075.88 43.5718 1072.4 43.264 1067.47 43.264H1053.94V64.1735H1068.59C1072.62 64.1735 1075.5 63.71 1077.25 63.1826V63.1826ZM1130.11 25.9858C1130.11 16.9227 1122.7 9.57645 1113.55 9.57645H1022.45C1013.3 9.57645 1005.89 16.9227 1005.89 25.9858V116.301C1005.89 125.364 1013.3 132.71 1022.45 132.71H1113.55C1122.7 132.71 1130.11 125.364 1130.11 116.301V25.9858V25.9858ZM1094.45 92.3665C1093.09 95.1033 1091.42 97.214 1089.42 98.6986C1087.42 100.182 1084.92 101.54 1081.91 102.297C1078.9 103.056 1075.21 103.669 1070.84 103.669H1044.56V35.1325H1070.42C1075.66 35.1325 1079.86 35.8527 1083.03 37.2281C1086.2 38.6047 1088.68 40.7374 1090.47 43.5974C1092.27 46.4585 1093.16 49.459 1093.16 52.5827C1093.16 55.4891 1092.37 58.2294 1090.78 60.7966C1089.19 63.3638 1086.78 65.4374 1083.57 67.0137C1087.72 68.2195 1090.91 70.2791 1093.14 73.1855C1095.37 76.0931 1096.49 79.5257 1096.49 83.4846C1096.48 86.6698 1095.81 89.6308 1094.45 92.3665V92.3665Z" fill="#5B4282"/>
<path d="M1013.25 281.665V329.263H1078H1142.75V281.665V234.066H1078H1013.25V281.665Z" fill="#007ACC"/>
<path d="M1117.61 277.87C1120.71 278.401 1123.53 279.594 1125.71 281.301C1126.91 282.224 1127.95 283.252 1128.81 284.361C1128.85 284.483 1123.22 287.261 1119.81 288.818C1119.68 288.879 1119.19 288.478 1118.64 287.88C1118.01 287.089 1117.13 286.428 1116.06 285.958C1115 285.487 1113.79 285.223 1112.55 285.19C1108.62 284.993 1106.07 286.506 1106.12 289.029C1106.08 289.648 1106.27 290.263 1106.67 290.81C1107.54 292.126 1109.14 292.911 1114.17 294.513C1123.42 297.444 1127.41 299.378 1129.9 302.129C1131.28 303.866 1132.13 305.804 1132.39 307.809C1132.65 309.813 1132.31 311.835 1131.4 313.733C1130.14 315.816 1128.15 317.615 1125.63 318.941C1123.1 320.267 1120.15 321.072 1117.06 321.274C1113.78 321.55 1110.46 321.525 1107.19 321.199C1102.18 320.594 1097.56 318.826 1094.02 316.153C1092.68 315.044 1091.54 313.809 1090.64 312.481C1091.02 312.274 1091.42 312.088 1091.84 311.924C1092.41 311.682 1094.61 310.761 1096.65 309.884L1100.35 308.296L1101.12 309.136C1102.44 310.52 1104.12 311.699 1106.06 312.604C1108.01 313.391 1110.23 313.764 1112.45 313.681C1114.67 313.598 1116.82 313.063 1118.66 312.135C1119.6 311.457 1120.19 310.558 1120.32 309.594C1120.45 308.63 1120.12 307.663 1119.38 306.861C1118.37 305.804 1116.32 304.913 1110.48 303.053C1105.9 301.914 1101.74 300.029 1098.29 297.539C1096.65 296.162 1095.43 294.537 1094.73 292.779C1094.22 290.776 1094.14 288.724 1094.51 286.703C1095.19 284.378 1096.83 282.264 1099.21 280.647C1101.58 279.031 1104.58 277.99 1107.78 277.666C1111.05 277.371 1114.37 277.44 1117.61 277.87V277.87ZM1087.21 281.845L1087.25 285.744H1070.4V320.954H1058.47V285.744H1041.62V281.923C1041.57 280.612 1041.62 279.3 1041.76 277.993C1041.82 277.931 1052.08 277.901 1064.51 277.918L1087.14 277.962L1087.21 281.845Z" fill="white"/>
<path d="M148.734 294.311C144.365 294.316 140.054 295.083 136.128 296.555C134.899 294.988 133.95 293.302 133.306 291.541C132.936 290.161 132.851 288.745 133.053 287.344C133.477 285.803 134.028 284.284 134.702 282.796C134.677 282.602 134.399 281.682 131.602 281.651C128.804 281.621 126.395 282.06 126.136 282.628C125.65 283.667 125.26 284.73 124.969 285.81C122.653 290.196 119.804 294.404 116.457 298.378C114.582 296.018 113.811 293.238 114.271 290.496C114.696 288.955 115.247 287.436 115.92 285.948C115.896 285.753 115.617 284.834 112.82 284.803C110.023 284.773 107.613 285.211 107.354 285.78C107.096 286.348 106.768 287.688 106.187 288.962C105.605 290.236 98.818 301.881 97.0392 304.884C96.125 306.41 95.3349 307.654 94.7784 308.493C94.7521 308.548 94.7188 308.6 94.6791 308.65C94.1822 309.371 93.9188 309.764 93.9188 309.764V309.783C93.5362 310.309 93.1288 310.798 92.9251 310.798C92.5698 309.708 92.5869 308.566 92.9748 307.482C93.9685 303.442 96.4032 297.161 96.3784 296.944C96.3784 296.826 96.8355 295.734 94.8033 295.17C94.3319 294.997 93.8027 294.942 93.2883 295.01C92.774 295.078 92.2999 295.267 91.9313 295.551C91.7525 295.551 91.6282 295.883 91.6282 295.883C91.6282 295.883 93.8393 288.821 87.4098 288.821C84.906 289.207 82.5282 289.975 80.4163 291.078C78.3043 292.18 76.5009 293.596 75.1121 295.242C73.383 295.963 69.7012 297.505 65.7609 299.164C64.2703 299.809 62.7101 300.454 61.2642 301.072C61.1648 300.996 61.0605 300.897 60.9611 300.82C53.1353 294.418 38.7508 289.901 39.3719 281.335C39.6005 278.214 40.9967 270.018 66.9932 260.064C88.3886 251.967 105.417 254.211 108.363 259.186C112.581 266.29 99.2404 279.48 77.1344 281.392C74.6888 281.773 72.163 281.727 69.7437 281.257C67.3244 280.788 65.0734 279.907 63.1573 278.679C61.9896 277.702 61.8108 277.645 61.3785 277.84C60.668 278.134 61.1251 279.011 61.3785 279.519C62.2218 280.691 63.3625 281.721 64.733 282.548C66.1036 283.376 67.6764 283.985 69.3583 284.338C78.0548 285.781 87.1218 285.091 95.2803 282.365C108.696 278.385 119.13 267.321 116.07 258.053C112.994 248.648 92.6667 245.546 73.4277 250.803C61.3773 253.917 50.2427 258.822 40.6588 265.237C30.0605 272.849 28.386 279.461 29.0717 282.235C31.5561 292.072 49.2001 298.47 56.2607 303.22C55.9029 303.377 55.575 303.514 55.2967 303.629C51.764 304.975 38.2986 310.382 34.9249 316.098C31.1138 322.584 35.536 327.22 38.4576 327.845C42.86 328.655 47.4815 328.388 51.6771 327.083C55.8726 325.778 59.4327 323.499 61.8605 320.565C63.9278 318.132 65.1985 315.351 65.5645 312.459C65.9304 309.567 65.3807 306.65 63.9622 303.957C63.9383 303.913 63.9047 303.873 63.8629 303.838L66.6305 302.591C68.4341 301.77 70.2129 301.011 71.7383 300.385C70.7039 302.676 70.0967 305.068 69.9347 307.49C69.5835 311.201 71.0627 314.879 74.0786 317.792C74.5375 318.095 75.0703 318.325 75.646 318.469C76.2217 318.614 76.829 318.668 77.4325 318.631C80.4138 318.631 81.7802 316.723 83.2758 314.457C85.1043 311.687 86.7539 308.467 86.7539 308.467C86.7539 308.467 84.6968 317.17 90.2867 317.17C92.3189 317.17 94.376 315.14 95.2952 314.117V314.136C95.2952 314.136 95.3449 314.079 95.4492 313.942L95.7771 313.534V313.495C96.592 312.404 98.4205 309.924 101.138 305.807C104.646 300.5 108.025 293.865 108.025 293.865C108.351 295.323 108.801 296.763 109.372 298.176C110.19 299.889 111.158 301.558 112.268 303.171C111.454 304.048 110.947 304.537 110.947 304.537L110.972 304.556C110.311 305.22 109.6 305.941 108.81 306.643C106.46 308.627 104.279 310.726 102.281 312.927C101.984 313.296 101.882 313.739 101.996 314.165C102.11 314.59 102.43 314.966 102.892 315.216C103.938 315.634 105.131 315.785 106.296 315.647C108.052 315.571 109.779 315.268 111.404 314.751C112.974 314.326 114.455 313.729 115.801 312.976C117.189 312.238 118.305 311.239 119.044 310.073C119.783 308.908 120.119 307.616 120.02 306.322C119.863 304.692 119.321 303.098 118.42 301.618C118.673 301.343 118.917 301.072 119.155 300.797C121.98 297.56 124.526 294.183 126.777 290.69C127.103 292.148 127.553 293.589 128.124 295.002C128.799 296.482 129.63 297.918 130.608 299.294C127.358 301.214 124.798 303.738 123.17 306.628C121.57 310.18 122.812 311.778 125.157 312.149C126.441 312.216 127.724 312.015 128.869 311.565C130.553 311.14 132.139 310.514 133.569 309.71C135.078 309.027 136.341 308.066 137.246 306.915C138.15 305.763 138.668 304.457 138.752 303.113C138.639 301.773 138.245 300.455 137.584 299.21C141.873 297.924 146.523 297.514 151.079 298.02C163.173 299.111 165.563 304.907 165.106 307.349C164.892 308.214 164.438 309.035 163.777 309.755C163.115 310.475 162.261 311.078 161.27 311.523C160.431 311.931 160.152 312.068 160.227 312.362C160.326 312.793 160.724 312.77 161.444 312.694C163.267 312.259 164.875 311.41 166.057 310.259C167.238 309.108 167.938 307.709 168.063 306.246C168.445 300.523 161.33 294.246 148.749 294.304L148.734 294.311ZM55.421 318.455C51.4062 321.813 45.8164 323.08 43.4016 322.008C40.8079 320.863 41.8265 315.903 46.7555 312.347C49.6793 310.326 52.8396 308.516 56.1961 306.94C56.7824 306.666 57.647 306.277 58.6805 305.796L58.9587 305.677L59.5699 305.384C60.4505 307.649 60.5303 310.054 59.8012 312.351C59.0721 314.648 57.5603 316.755 55.421 318.455V318.455ZM84.6422 303.194C83.246 305.807 80.3243 312.503 78.5455 312.129C77.0201 311.817 76.0612 306.742 78.2424 301.728C79.3438 299.315 80.948 297.055 82.9926 295.036C85.1788 293.163 87.5936 292.537 88.175 293.3C87.6446 296.714 86.4539 300.049 84.6422 303.194V303.194ZM108.756 312.053C108.169 312.286 107.613 312.435 107.359 312.328C107.18 312.252 107.613 311.946 107.613 311.946C107.613 311.946 110.639 309.447 111.831 308.318C112.517 307.654 113.322 306.876 114.196 305.994V306.246C114.196 309.23 110.435 311.24 108.76 312.061L108.756 312.053ZM127.359 308.795C126.926 308.562 127.001 307.78 128.452 305.342C129.46 303.776 130.87 302.382 132.596 301.244C132.86 301.821 132.998 302.429 133.003 303.041C133.023 304.344 132.48 305.616 131.46 306.657C130.44 307.699 128.999 308.452 127.363 308.799L127.359 308.795Z" fill="#CD6799"/>
<path d="M313.005 277.453C303.436 277.453 298.681 282.85 298.681 290.621C298.681 295.623 300.996 299.167 304.061 300.789C302.56 302.276 301.31 303.576 300.184 304.859C299.056 306.145 298.369 307.502 298.369 308.991C298.369 310.817 299.056 312.509 301.121 313.451C298.933 315.685 297.68 317.306 297.68 320.349C297.68 325.687 301.996 328.797 313.319 328.797C324.204 328.797 330.52 324.407 330.52 316.633C330.52 307.648 324.141 307.309 313.319 306.564L307.189 306.159L309.254 302.577C310.378 302.915 312.194 303.185 314.198 303.185C322.078 303.185 327.52 298.793 327.52 291.289C327.52 288.18 326.099 286.018 324.974 284.462L330.5 283.99V278.01H318.761C317.324 278.01 315.695 277.453 313.005 277.453V277.453ZM315.82 315.958C318.825 316.161 321.203 316.296 321.203 318.462C321.203 322.107 316.259 322.381 312.633 322.381C308.253 322.381 305.063 321.568 305.063 318.866C305.063 317.512 305.875 316.365 306.69 315.284L315.82 315.958V315.958ZM313.384 296.089C309.254 296.089 307.565 293.789 307.565 290.479C307.565 286.086 310.129 284.26 313.57 284.26C317.135 284.26 319.263 286.356 319.263 290.343C319.263 293.859 316.885 296.089 313.384 296.089ZM341.966 272.182C345.594 272.182 347.659 269.951 347.659 266.097C347.659 262.248 345.594 260.15 341.966 260.15C338.4 260.15 336.335 262.248 336.335 266.097C336.335 269.95 338.4 272.182 341.966 272.182ZM346.75 305.635V278.01H334.584L333.896 283.271L337.23 284.452C337.858 284.653 338 285.023 338 285.766V305.635C338 306.65 337.473 306.853 336.596 306.989L333 307.462V313.123H351.75V307.462L348.155 306.989C347.214 306.853 346.75 306.719 346.75 305.635ZM374.773 304.23C373.27 304.838 371.483 305.309 369.729 305.309C366.353 305.309 365.5 303.756 365.5 299.768V283.412H374.25V276.659H365.953C365.451 276.659 365.5 276.655 365.5 276.182V267.205H359.509C358.821 273.958 355.5 276.924 350.5 277.602V283.412H355.504C356.005 283.412 355.5 283.888 355.5 284.292V301.999C355.5 309.639 358.568 312.882 366.01 312.882C369.578 312.882 373.644 311.597 376.335 310.179L374.773 304.23V304.23ZM255.173 261.541C253.526 259.761 250.854 259.761 249.206 261.541L243.268 267.958L250.801 276.097C252.553 275.459 254.56 275.887 255.956 277.395C257.359 278.912 257.753 281.1 257.146 282.998L264.408 290.844C266.165 290.19 268.191 290.613 269.594 292.131C271.556 294.248 271.556 297.681 269.594 299.8C267.633 301.921 264.456 301.921 262.494 299.8C261.019 298.205 260.464 295.865 261.213 293.901L254.25 286.585V305.84C254.25 306.095 255.369 306.435 255.768 306.865C257.728 308.983 257.823 312.416 255.861 314.537C253.9 316.655 250.769 316.655 248.809 314.537C246.849 312.416 246.873 308.984 248.834 306.865C249.319 306.342 249.25 305.947 250.5 305.682V286.249C249.25 285.985 249.341 285.592 248.858 285.066C247.373 283.462 247.015 281.108 247.776 279.137L240.349 271.111L220.738 292.3C219.089 294.081 219.089 296.968 220.738 298.747L249.34 329.648C250.986 331.427 253.658 331.427 255.306 329.648L283.775 298.889C285.421 297.109 285.421 294.221 283.775 292.441L255.173 261.541V261.541Z" fill="#F34F29"/>
<g clip-path="url(#clip1_18_3)">
<path fill-rule="evenodd" clip-rule="evenodd" d="M511.5 220.275C483.051 220.275 459.981 238.803 459.981 261.66C459.981 279.945 474.742 295.459 495.213 300.931C497.787 301.314 498.733 300.033 498.733 298.939C498.733 297.953 498.685 294.692 498.663 291.235C484.329 293.738 481.305 286.352 481.305 286.352C478.962 281.568 475.585 280.296 475.585 280.296C470.911 277.727 475.936 277.78 475.936 277.78C481.11 278.072 483.835 282.046 483.835 282.046C488.429 288.372 495.887 286.543 498.826 285.485C499.29 282.81 500.625 280.983 502.098 279.95C490.655 278.904 478.625 275.355 478.625 259.497C478.625 254.979 480.638 251.287 483.934 248.388C483.399 247.345 481.636 243.135 484.433 237.435C484.433 237.435 488.759 236.324 498.601 241.679C502.712 240.762 507.12 240.302 511.498 240.286C515.876 240.303 520.287 240.763 524.404 241.679C534.237 236.325 538.557 237.436 538.557 237.436C541.362 243.136 539.599 247.345 539.063 248.389C542.367 251.286 544.365 254.979 544.365 259.498C544.365 275.393 532.312 278.893 520.84 279.916C522.688 281.2 524.335 283.72 524.335 287.581C524.335 293.118 524.277 297.575 524.277 298.937C524.277 300.037 525.204 301.328 527.815 300.922C548.275 295.443 563.017 279.936 563.017 261.657C563.019 238.804 539.953 220.275 511.5 220.275Z" fill="#181616"/>
<path d="M479.495 279.694C479.38 279.901 478.977 279.962 478.611 279.821C478.236 279.685 478.027 279.405 478.148 279.198C478.257 278.988 478.662 278.929 479.036 279.07C479.411 279.206 479.624 279.488 479.496 279.694H479.495ZM481.581 281.566C481.336 281.748 480.855 281.663 480.528 281.373C480.191 281.084 480.128 280.698 480.378 280.513C480.63 280.331 481.096 280.416 481.431 280.705C481.77 280.997 481.837 281.379 481.58 281.565L481.581 281.566ZM483.612 283.947C483.297 284.124 482.78 283.959 482.462 283.59C482.144 283.224 482.144 282.783 482.468 282.605C482.787 282.428 483.296 282.587 483.618 282.952C483.935 283.327 483.935 283.769 483.612 283.948V283.947ZM486.395 286.251C486.113 286.501 485.511 286.434 485.071 286.092C484.621 285.759 484.496 285.285 484.778 285.035C485.065 284.785 485.669 284.855 486.113 285.193C486.561 285.526 486.696 286.001 486.395 286.25V286.251ZM490.236 287.587C490.11 287.912 489.531 288.059 488.948 287.922C488.364 287.78 487.984 287.401 488.1 287.074C488.221 286.747 488.805 286.594 489.392 286.741C489.973 286.881 490.355 287.257 490.235 287.587H490.236ZM494.45 287.835C494.466 288.176 493.97 288.46 493.358 288.466C492.743 288.477 492.244 288.201 492.236 287.865C492.236 287.52 492.721 287.24 493.336 287.232C493.949 287.223 494.45 287.497 494.45 287.835ZM498.373 287.299C498.446 287.632 498.022 287.974 497.413 288.065C496.815 288.154 496.263 287.948 496.185 287.617C496.113 287.277 496.545 286.937 497.142 286.847C497.751 286.761 498.296 286.962 498.373 287.3V287.299Z" fill="#181616"/>
<path d="M464.098 324.155H451.141C450.98 324.155 450.826 324.206 450.713 324.298C450.599 324.389 450.535 324.513 450.535 324.642V329.731C450.535 329.86 450.599 329.984 450.713 330.075C450.826 330.166 450.98 330.217 451.141 330.217H456.194V336.54C456.194 336.54 455.059 336.852 451.919 336.852C448.219 336.852 443.047 335.766 443.047 326.63C443.047 317.493 448.433 316.289 453.49 316.289C457.866 316.289 459.751 316.908 460.952 317.207C461.327 317.298 461.678 316.997 461.678 316.728L463.123 311.811C463.125 311.737 463.105 311.664 463.065 311.598C463.024 311.532 462.965 311.475 462.891 311.431C462.403 311.151 459.431 309.817 451.922 309.817C443.271 309.817 434.397 312.772 434.397 326.986C434.397 341.198 444.557 343.315 453.118 343.315C460.207 343.315 464.507 340.882 464.507 340.882C464.684 340.804 464.703 340.604 464.703 340.512V324.641C464.703 324.512 464.64 324.388 464.526 324.297C464.412 324.205 464.258 324.154 464.098 324.154V324.155ZM530.277 311.031H522.98C522.9 311.031 522.821 311.044 522.748 311.069C522.674 311.093 522.608 311.129 522.552 311.175C522.496 311.22 522.452 311.274 522.421 311.333C522.391 311.393 522.376 311.456 522.377 311.52L522.379 322.847H511.006V311.52C511.006 311.456 510.991 311.393 510.961 311.334C510.931 311.275 510.887 311.221 510.831 311.175C510.775 311.13 510.709 311.094 510.636 311.069C510.562 311.044 510.484 311.031 510.404 311.031H503.108C503.029 311.031 502.95 311.044 502.876 311.069C502.803 311.093 502.736 311.129 502.68 311.175C502.624 311.22 502.58 311.274 502.55 311.333C502.52 311.393 502.505 311.456 502.505 311.52V342.191C502.505 342.46 502.776 342.68 503.108 342.68H510.404C510.484 342.68 510.562 342.667 510.636 342.642C510.709 342.617 510.776 342.581 510.832 342.535C510.888 342.49 510.932 342.436 510.962 342.377C510.992 342.317 511.007 342.254 511.006 342.19V329.071H522.379L522.36 342.19C522.36 342.46 522.631 342.68 522.965 342.68H530.277C530.356 342.68 530.435 342.667 530.509 342.642C530.582 342.617 530.648 342.581 530.704 342.535C530.76 342.49 530.804 342.436 530.834 342.377C530.864 342.317 530.879 342.254 530.879 342.19V311.519C530.879 311.249 530.612 311.031 530.277 311.031V311.031ZM473.162 311.728C470.565 311.728 468.458 313.433 468.458 315.544C468.458 317.652 470.565 319.362 473.162 319.362C475.76 319.362 477.866 317.652 477.866 315.544C477.866 313.433 475.759 311.728 473.162 311.728ZM476.741 321.074H469.468C469.134 321.074 468.836 321.351 468.836 321.619V341.903C468.836 342.499 469.299 342.676 469.897 342.676H476.448C477.169 342.676 477.344 342.392 477.344 341.893V335.72V321.564C477.345 321.5 477.329 321.437 477.299 321.377C477.269 321.318 477.225 321.265 477.169 321.219C477.113 321.174 477.046 321.138 476.973 321.113C476.899 321.088 476.821 321.076 476.741 321.075V321.074ZM558.608 321.12H551.366C551.287 321.121 551.208 321.134 551.135 321.159C551.062 321.184 550.996 321.22 550.94 321.265C550.884 321.311 550.84 321.365 550.81 321.424C550.78 321.483 550.765 321.547 550.766 321.61V336.649C550.766 336.649 548.925 337.729 546.316 337.729C543.706 337.729 543.013 336.779 543.013 334.725V321.61C543.014 321.546 542.999 321.483 542.969 321.424C542.939 321.364 542.895 321.311 542.839 321.265C542.783 321.219 542.717 321.183 542.643 321.158C542.57 321.133 542.491 321.121 542.412 321.12H535.064C534.903 321.121 534.749 321.173 534.636 321.265C534.523 321.357 534.46 321.481 534.461 321.61V335.717C534.461 341.816 538.693 343.309 544.514 343.309C549.29 343.309 553.141 341.188 553.141 341.188C553.141 341.188 553.322 342.307 553.407 342.438C553.492 342.57 553.706 342.704 553.94 342.704L558.614 342.687C558.694 342.687 558.773 342.674 558.846 342.649C558.92 342.624 558.987 342.588 559.043 342.543C559.099 342.497 559.144 342.443 559.174 342.384C559.204 342.324 559.22 342.261 559.219 342.197L559.216 321.607C559.215 321.478 559.151 321.355 559.038 321.263C558.925 321.172 558.771 321.12 558.61 321.119L558.608 321.12ZM578.397 320.431C574.285 320.431 571.487 321.905 571.487 321.905V311.519C571.488 311.455 571.473 311.392 571.443 311.333C571.413 311.274 571.369 311.22 571.313 311.174C571.257 311.129 571.19 311.093 571.117 311.068C571.044 311.043 570.965 311.03 570.886 311.03H563.57C563.49 311.03 563.411 311.042 563.338 311.067C563.264 311.092 563.197 311.128 563.141 311.173C563.085 311.219 563.04 311.273 563.01 311.332C562.98 311.391 562.964 311.455 562.965 311.519V342.19C562.964 342.254 562.98 342.318 563.01 342.377C563.04 342.436 563.085 342.49 563.141 342.536C563.197 342.581 563.264 342.617 563.338 342.642C563.411 342.667 563.49 342.679 563.57 342.679H568.647C568.877 342.679 569.049 342.585 569.176 342.419C569.3 342.253 569.483 341.004 569.483 341.004C569.483 341.004 572.474 343.28 578.139 343.28C584.787 343.28 588.602 340.572 588.602 331.119C588.602 321.666 582.511 320.43 578.396 320.43L578.397 320.431ZM575.539 337.711C573.029 337.65 571.325 336.735 571.325 336.735V327.022C571.325 327.022 573.006 326.195 575.067 326.045C577.674 325.857 580.187 326.491 580.187 331.487C580.187 336.756 579.055 337.796 575.54 337.71L575.539 337.711ZM498.416 337.597C498.097 337.597 497.281 337.701 496.442 337.701C493.754 337.701 492.842 336.697 492.842 335.397V326.773H498.315C498.395 326.773 498.474 326.76 498.548 326.735C498.622 326.711 498.689 326.675 498.745 326.629C498.801 326.583 498.846 326.529 498.876 326.47C498.906 326.41 498.921 326.347 498.921 326.283V321.559C498.921 321.495 498.906 321.431 498.875 321.372C498.845 321.313 498.801 321.259 498.744 321.214C498.688 321.168 498.621 321.132 498.548 321.108C498.474 321.083 498.395 321.071 498.315 321.071H492.842L492.833 315.263C492.833 315.042 492.693 314.932 492.376 314.932H484.916C484.628 314.932 484.472 315.036 484.472 315.258V321.26C484.472 321.26 480.734 321.985 480.482 322.043C480.356 322.073 480.246 322.134 480.167 322.218C480.088 322.303 480.046 322.405 480.046 322.51V326.282C480.045 326.345 480.061 326.409 480.091 326.468C480.121 326.527 480.165 326.581 480.221 326.626C480.277 326.672 480.343 326.708 480.416 326.733C480.49 326.758 480.568 326.77 480.648 326.771H484.472V335.845C484.472 342.586 490.357 343.247 494.329 343.247C496.142 343.247 498.313 342.78 498.671 342.673C498.889 342.608 499.014 342.428 499.014 342.233L499.019 338.084C499.016 337.955 498.952 337.833 498.839 337.742C498.726 337.65 498.573 337.598 498.413 337.596L498.416 337.597Z" fill="#100E0F"/>
</g>
<path d="M665.073 338.981C670.699 338.981 675.265 331.597 675.265 322.501V306.02H665.073C659.448 306.02 654.881 313.404 654.881 322.501C654.881 331.597 659.448 338.981 665.073 338.981Z" fill="#0ACF83"/>
<path d="M654.871 289.522C654.871 280.426 659.437 273.042 665.063 273.042H675.254V306.02H665.063C659.437 306.02 654.871 298.636 654.871 289.539V289.522Z" fill="#A259FF"/>
<path d="M654.871 256.544C654.871 247.447 659.437 240.063 665.063 240.063H675.254V273.042H665.063C659.437 273.042 654.871 265.657 654.871 256.561V256.544Z" fill="#F24E1E"/>
<path d="M675.169 240.063H685.361C690.986 240.063 695.552 247.447 695.552 256.544C695.552 265.64 690.986 273.024 685.361 273.024H675.169V240.063Z" fill="#FF7262"/>
<path d="M695.659 289.522C695.659 298.618 691.093 306.003 685.468 306.003C679.842 306.003 675.169 298.618 675.169 289.522C675.169 280.426 679.735 273.042 685.361 273.042C690.986 273.042 695.552 280.426 695.552 289.522H695.659Z" fill="#1ABCFE"/>
<path d="M706.803 267.387V301.939H709.551V285.441H716.161V281.152H709.551V271.71H718.139V267.387H706.803ZM723.112 274.408C724.107 274.408 724.909 273.111 724.909 271.502C724.909 269.894 724.096 268.77 723.112 268.77C722.128 268.77 721.315 270.067 721.315 271.675C721.315 272.454 721.508 273.18 721.85 273.751C722.192 274.321 722.641 274.615 723.133 274.615L723.112 274.408ZM721.722 278.766V301.939H724.363V278.766H721.636H721.722ZM734.683 278.074C731.026 278.074 728.481 283.262 728.481 289.003C728.481 294.745 731.047 299.898 734.683 299.898C735.44 299.92 736.191 299.686 736.889 299.213C737.587 298.739 738.216 298.036 738.737 297.149V300.227C738.729 302.076 738.285 303.851 737.496 305.19C737.097 305.848 736.621 306.37 736.096 306.726C735.571 307.083 735.007 307.266 734.437 307.265C733.563 307.221 732.715 306.764 731.999 305.951L730.609 309.807C731.676 310.918 732.91 311.542 734.178 311.614C735.447 311.686 736.704 311.204 737.817 310.218C738.931 309.232 739.859 307.779 740.504 306.011C741.15 304.244 741.489 302.228 741.485 300.175V278.731H738.737V280.806C738.216 279.918 737.587 279.215 736.889 278.742C736.191 278.269 735.44 278.035 734.683 278.057V278.074ZM731.24 289.003C731.177 287.879 731.31 286.749 731.624 285.74C731.938 284.732 732.419 283.885 733.015 283.297C734.234 282.086 735.764 282.086 736.972 283.297C738.18 284.507 738.865 286.721 738.747 289.003C738.81 290.128 738.677 291.258 738.363 292.266C738.049 293.275 737.568 294.121 736.972 294.71C735.753 295.921 734.224 295.921 733.015 294.71C731.807 293.5 731.122 291.286 731.24 289.003Z" fill="black"/>
<path d="M751.399 282.605C750.608 282.609 749.851 283.119 749.292 284.023C748.733 284.927 748.418 286.151 748.415 287.43V302.094H745.667V278.921H748.415V280.875C749.249 279.077 750.575 278.039 751.966 278.074C753.72 278.005 755.356 279.527 756.222 281.999C757.291 279.578 758.831 278.108 760.5 278.074C763.633 278.074 765.58 282.155 765.59 287.205V301.956H762.842V287.257C762.922 286.341 762.839 285.407 762.602 284.566C762.365 283.724 761.983 283.01 761.503 282.508C761.022 282.006 760.463 281.737 759.891 281.733C759.319 281.728 758.759 281.989 758.275 282.484C757.795 282.99 757.414 283.709 757.179 284.556C756.944 285.402 756.864 286.339 756.949 287.257V301.922H754.308V287.274C754.305 285.996 753.99 284.771 753.431 283.867C752.872 282.963 752.114 282.454 751.324 282.449L751.399 282.605ZM780.274 281.394C779.648 280.339 778.896 279.501 778.063 278.933C777.23 278.365 776.333 278.079 775.429 278.091C771.333 278.091 768.478 283.694 768.478 290.197C768.478 296.699 771.365 302.302 775.429 302.302C776.333 302.315 777.23 302.028 778.063 301.46C778.896 300.892 779.648 300.055 780.274 298.999V301.628H783.022V278.454H780.274V281.394ZM771.184 290.387C771.045 287.62 771.879 284.957 773.344 283.504C774.809 282.051 776.552 282.051 778.114 283.504C778.829 284.222 779.408 285.243 779.789 286.457C780.17 287.67 780.338 289.03 780.274 290.387C780.413 293.154 779.579 295.817 778.114 297.27C776.648 298.722 774.905 298.722 773.344 297.27C772.629 296.552 772.049 295.531 771.668 294.317C771.287 293.103 771.12 291.744 771.184 290.387Z" fill="black"/>
<path d="M906 234.897L851.42 252.631L859.745 318.387L906 341.73L952.255 318.387L960.58 252.631L906 234.897Z" fill="#DD0031"/>
<path d="M906 234.897V246.755V246.702V300.813V341.73L952.255 318.387L960.58 252.631L906 234.897Z" fill="#C3002F"/>
<path d="M906 246.702L871.88 316.41H884.602L891.461 300.813H920.422L927.281 316.41H940.003L906 246.702ZM915.966 291.198H896.034L906 269.35L915.966 291.198Z" fill="white"/>
<defs>
<clipPath id="clip0_18_3">
<rect width="161" height="112.424" fill="white" transform="translate(383 14.5063)"/>
</clipPath>
<clipPath id="clip1_18_3">
<rect width="155" height="124.513" fill="white" transform="translate(434 218.804)"/>
</clipPath>
</defs>
</svg>
