<svg xmlns="http://www.w3.org/2000/svg" xmlns:xlink="http://www.w3.org/1999/xlink" viewBox="0,0,256,256" width="128px" height="128px" fill-rule="nonzero"><g fill="#000000" fill-rule="nonzero" stroke="none" stroke-width="1" stroke-linecap="butt" stroke-linejoin="miter" stroke-miterlimit="10" stroke-dasharray="" stroke-dashoffset="0" font-family="none" font-weight="none" font-size="none" text-anchor="none" style="mix-blend-mode: normal"><g transform="scale(3.55556,3.55556)"><path d="M36,12c-13.255,0 -24,10.745 -24,24c0,13.255 10.745,24 24,24c13.255,0 24,-10.745 24,-24c0,-13.255 -10.745,-24 -24,-24zM36,20c8.837,0 16,7.163 16,16c0,7.28418 -4.8717,13.42017 -11.53125,15.35547c-0.27019,-0.25234 -0.52712,-0.61184 -0.51562,-1.07031c0.027,-1.052 0,-3.5062 0,-4.4082c0,-1.548 -0.98047,-2.64648 -0.98047,-2.64648c0,0 7.68164,0.08567 7.68164,-8.11133c0,-3.162 -1.65039,-4.80859 -1.65039,-4.80859c0,0 0.86822,-3.37659 -0.30078,-4.80859c-1.31,-0.142 -3.6562,1.25134 -4.6582,1.90234c0,0 -1.58752,-0.65039 -4.22852,-0.65039c-2.641,0 -4.22852,0.65039 -4.22852,0.65039c-1.001,-0.651 -3.3482,-2.04334 -4.6582,-1.90234c-1.169,1.432 -0.30078,4.80859 -0.30078,4.80859c0,0 -1.6543,1.64559 -1.6543,4.80859c0,8.197 7.68164,8.11133 7.68164,8.11133c0,0 -0.87405,0.99625 -0.96289,2.42188c-0.51328,0.18107 -1.21313,0.39648 -1.88086,0.39648c-1.61,0 -2.8342,-1.56506 -3.2832,-2.28906c-0.443,-0.714 -1.35127,-1.3125 -2.19727,-1.3125c-0.557,0 -0.82812,0.27966 -0.82812,0.59766c0,0.318 0.78187,0.54086 1.29688,1.13086c1.087,1.245 1.0655,4.04297 4.9375,4.04297c0.45827,0 1.28282,-0.10333 1.93945,-0.19336c-0.00363,0.8787 -0.01384,1.71997 0,2.25977c0.01042,0.4152 -0.20082,0.74689 -0.44141,0.99414c-6.51017,-2.02753 -11.23633,-8.10141 -11.23633,-15.2793c0,-8.837 7.163,-16 16,-16z"></path></g></g><g fill="#000000" fill-rule="nonzero" stroke="none" stroke-width="1" stroke-linecap="butt" stroke-linejoin="miter" stroke-miterlimit="10" stroke-dasharray="" stroke-dashoffset="0" font-family="none" font-weight="none" font-size="none" text-anchor="none" style="mix-blend-mode: normal"><g id="text"><path d="M111.72056,231.23111v-0.08c0,-1.15333 0.27333,-2.08 0.82,-2.78c0.55333,-0.70667 1.29333,-1.06 2.22,-1.06v0c0.82667,0 1.46667,0.28333 1.92,0.85v0l0.09,-0.71h1.82v7.26c0,0.66 -0.15,1.23333 -0.45,1.72c-0.3,0.48667 -0.72,0.85667 -1.26,1.11c-0.54,0.25333 -1.17333,0.38 -1.9,0.38v0c-0.55333,0 -1.09,-0.11 -1.61,-0.33c-0.52667,-0.22 -0.92333,-0.50333 -1.19,-0.85v0l0.89,-1.22c0.5,0.56 1.10667,0.84 1.82,0.84v0c0.52667,0 0.94,-0.14333 1.24,-0.43c0.29333,-0.28667 0.44,-0.69 0.44,-1.21v0v-0.4c-0.46,0.52 -1.06667,0.78 -1.82,0.78v0c-0.90667,0 -1.63667,-0.35333 -2.19,-1.06c-0.56,-0.70667 -0.84,-1.64333 -0.84,-2.81zM113.73056,231.30111v0c0,0.68 0.13667,1.21333 0.41,1.6c0.27333,0.38667 0.64667,0.58 1.12,0.58v0c0.61333,0 1.05,-0.23 1.31,-0.69v0v-3.16c-0.26667,-0.46 -0.7,-0.69 -1.3,-0.69v0c-0.48,0 -0.85667,0.19667 -1.13,0.59c-0.27333,0.39333 -0.41,0.98333 -0.41,1.77zM122.25056,227.45111v7.51h-2.02v-7.51zM120.12056,225.50111v0c0,-0.3 0.1,-0.54667 0.3,-0.74c0.2,-0.19333 0.47333,-0.29 0.82,-0.29v0c0.34,0 0.61333,0.09667 0.82,0.29c0.20667,0.19333 0.31,0.44 0.31,0.74v0c0,0.30667 -0.10333,0.55667 -0.31,0.75c-0.20667,0.2 -0.48,0.3 -0.82,0.3c-0.34,0 -0.61333,-0.1 -0.82,-0.3c-0.2,-0.19333 -0.3,-0.44333 -0.3,-0.75zM124.30056,225.60111h2v1.85h1.29v1.47h-1.29v3.75c0,0.28 0.05333,0.48 0.16,0.6c0.10667,0.12 0.31,0.18 0.61,0.18v0c0.22667,0 0.42333,-0.01667 0.59,-0.05v0v1.52c-0.39333,0.12 -0.79667,0.18 -1.21,0.18v0c-1.40667,0 -2.12333,-0.71 -2.15,-2.13v0v-4.05h-1.1v-1.47h1.1zM130.66056,224.30111v3.97c0.53333,-0.64 1.20333,-0.96 2.01,-0.96v0c1.63333,0 2.46,0.94667 2.48,2.84v0v4.81h-2.01v-4.75c0,-0.43333 -0.09,-0.75333 -0.27,-0.96c-0.18667,-0.20667 -0.49667,-0.31 -0.93,-0.31v0c-0.58667,0 -1.01333,0.22667 -1.28,0.68v0v5.34h-2v-10.66zM141.22056,234.96111l-0.06,-0.76c-0.49333,0.6 -1.17667,0.9 -2.05,0.9v0c-0.80667,0 -1.42333,-0.23 -1.85,-0.69c-0.42,-0.46667 -0.63667,-1.14667 -0.65,-2.04v0v-4.92h2.01v4.85c0,0.78667 0.35667,1.18 1.07,1.18v0c0.68,0 1.14667,-0.23667 1.4,-0.71v0v-5.32h2.02v7.51zM151.39056,231.16111v0.11c0,1.20667 -0.25667,2.14667 -0.77,2.82c-0.51333,0.67333 -1.23,1.01 -2.15,1.01v0c-0.81333,0 -1.46333,-0.31333 -1.95,-0.94v0l-0.09,0.8h-1.81v-10.66h2.01v3.82c0.46,-0.54 1.07,-0.81 1.83,-0.81v0c0.91333,0 1.63,0.33667 2.15,1.01c0.52,0.67333 0.78,1.62 0.78,2.84zM149.39056,231.13111v0c0,-0.76 -0.12333,-1.31333 -0.37,-1.66c-0.24,-0.35333 -0.59667,-0.53 -1.07,-0.53v0c-0.64,0 -1.08,0.26333 -1.32,0.79v0v2.96c0.24667,0.52667 0.69,0.79 1.33,0.79v0c0.64667,0 1.07333,-0.32 1.28,-0.96v0c0.1,-0.3 0.15,-0.76333 0.15,-1.39z"></path></g></g></svg>